solid OpenSCAD_Model
  facet normal 1 -0 1.22465e-16
    outer loop
      vertex 0 10 15
      vertex 1.83697e-15 15 0
      vertex 0 15 15
    endloop
  endfacet
  facet normal 1 0 1.22465e-16
    outer loop
      vertex 1.83697e-15 15 0
      vertex 0 10 15
      vertex 1.83697e-15 10 0
    endloop
  endfacet
  facet normal 1.22465e-16 0 -1
    outer loop
      vertex -55 10 -6.73556e-15
      vertex 1.83697e-15 15 0
      vertex 1.83697e-15 10 0
    endloop
  endfacet
  facet normal 1.22465e-16 0 -1
    outer loop
      vertex 1.83697e-15 15 0
      vertex -55 10 -6.73556e-15
      vertex -55 15 -6.73556e-15
    endloop
  endfacet
  facet normal -1 0 0
    outer loop
      vertex -55 10 -6.73556e-15
      vertex -55 15 15
      vertex -55 15 -6.73556e-15
    endloop
  endfacet
  facet normal -1 -0 0
    outer loop
      vertex -55 15 15
      vertex -55 10 -6.73556e-15
      vertex -55 10 15
    endloop
  endfacet
  facet normal 0 1 0
    outer loop
      vertex 0 15 15
      vertex -2.5 15 10
      vertex -2.5 15 15
    endloop
  endfacet
  facet normal 0 1 0
    outer loop
      vertex 0 15 15
      vertex -2.51917 15 9.63415
      vertex -2.5 15 10
    endloop
  endfacet
  facet normal 0 1 0
    outer loop
      vertex 0 15 15
      vertex -2.57648 15 9.27231
      vertex -2.51917 15 9.63415
    endloop
  endfacet
  facet normal 0 1 0
    outer loop
      vertex 1.83697e-15 15 0
      vertex -2.57648 15 9.27231
      vertex 0 15 15
    endloop
  endfacet
  facet normal 0 1 0
    outer loop
      vertex -2.57648 15 9.27231
      vertex 1.83697e-15 15 0
      vertex -2.6713 15 8.91844
    endloop
  endfacet
  facet normal 0 1 0
    outer loop
      vertex -48.2723 15 6.57648
      vertex -55 15 -6.73556e-15
      vertex -48.6341 15 6.51917
    endloop
  endfacet
  facet normal 0 1 0
    outer loop
      vertex -5.63415 15 6.51917
      vertex 1.83697e-15 15 0
      vertex -6 15 6.5
    endloop
  endfacet
  facet normal 0 1 0
    outer loop
      vertex -5.27231 15 6.57648
      vertex 1.83697e-15 15 0
      vertex -5.63415 15 6.51917
    endloop
  endfacet
  facet normal 0 1 0
    outer loop
      vertex -4.91844 15 6.6713
      vertex 1.83697e-15 15 0
      vertex -5.27231 15 6.57648
    endloop
  endfacet
  facet normal 0 1 0
    outer loop
      vertex -4.57642 15 6.80259
      vertex 1.83697e-15 15 0
      vertex -4.91844 15 6.6713
    endloop
  endfacet
  facet normal 0 1 0
    outer loop
      vertex -4.25 15 6.96891
      vertex 1.83697e-15 15 0
      vertex -4.57642 15 6.80259
    endloop
  endfacet
  facet normal 0 1 0
    outer loop
      vertex -3.94275 15 7.16844
      vertex 1.83697e-15 15 0
      vertex -4.25 15 6.96891
    endloop
  endfacet
  facet normal 0 1 0
    outer loop
      vertex -3.65804 15 7.39899
      vertex 1.83697e-15 15 0
      vertex -3.94275 15 7.16844
    endloop
  endfacet
  facet normal 0 1 0
    outer loop
      vertex -3.39899 15 7.65804
      vertex 1.83697e-15 15 0
      vertex -3.65804 15 7.39899
    endloop
  endfacet
  facet normal 0 1 0
    outer loop
      vertex -3.16844 15 7.94275
      vertex 1.83697e-15 15 0
      vertex -3.39899 15 7.65804
    endloop
  endfacet
  facet normal 0 1 0
    outer loop
      vertex -3.00217 15 8.19879
      vertex 1.83697e-15 15 0
      vertex -3.16844 15 7.94275
    endloop
  endfacet
  facet normal 0 1 0
    outer loop
      vertex -2.96891 15 8.25
      vertex 1.83697e-15 15 0
      vertex -3.00217 15 8.19879
    endloop
  endfacet
  facet normal 0 1 0
    outer loop
      vertex -2.94119 15 8.3044
      vertex 1.83697e-15 15 0
      vertex -2.96891 15 8.25
    endloop
  endfacet
  facet normal 0 1 0
    outer loop
      vertex -2.80259 15 8.57642
      vertex 1.83697e-15 15 0
      vertex -2.94119 15 8.3044
    endloop
  endfacet
  facet normal 0 1 0
    outer loop
      vertex -2.6713 15 8.91844
      vertex 1.83697e-15 15 0
      vertex -2.80259 15 8.57642
    endloop
  endfacet
  facet normal 0 1 -0
    outer loop
      vertex -9.5 15 10
      vertex -24.5 15 15
      vertex -9.5 15 15
    endloop
  endfacet
  facet normal 0 1 0
    outer loop
      vertex -9.5 15 10
      vertex -24.5 15 10
      vertex -24.5 15 15
    endloop
  endfacet
  facet normal 0 1 0
    outer loop
      vertex -9.5 15 10
      vertex -24.5027 15 9.94774
      vertex -24.5 15 10
    endloop
  endfacet
  facet normal 0 1 0
    outer loop
      vertex -9.5 15 10
      vertex -24.5164 15 9.68641
      vertex -24.5027 15 9.94774
    endloop
  endfacet
  facet normal 0 1 0
    outer loop
      vertex -9.48083 15 9.63415
      vertex -24.5164 15 9.68641
      vertex -9.5 15 10
    endloop
  endfacet
  facet normal 0 1 0
    outer loop
      vertex -9.48083 15 9.63415
      vertex -24.5656 15 9.37627
      vertex -24.5164 15 9.68641
    endloop
  endfacet
  facet normal 0 1 0
    outer loop
      vertex -9.42352 15 9.27231
      vertex -24.5656 15 9.37627
      vertex -9.48083 15 9.63415
    endloop
  endfacet
  facet normal 0 1 0
    outer loop
      vertex -9.42352 15 9.27231
      vertex -24.6468 15 9.07295
      vertex -24.5656 15 9.37627
    endloop
  endfacet
  facet normal 0 1 0
    outer loop
      vertex -9.3287 15 8.91844
      vertex -24.6468 15 9.07295
      vertex -9.42352 15 9.27231
    endloop
  endfacet
  facet normal 0 1 0
    outer loop
      vertex -9.3287 15 8.91844
      vertex -24.7594 15 8.77979
      vertex -24.6468 15 9.07295
    endloop
  endfacet
  facet normal 0 1 0
    outer loop
      vertex -9.19741 15 8.57642
      vertex -24.7594 15 8.77979
      vertex -9.3287 15 8.91844
    endloop
  endfacet
  facet normal 0 1 0
    outer loop
      vertex -9.19741 15 8.57642
      vertex -24.8782 15 8.54663
      vertex -24.7594 15 8.77979
    endloop
  endfacet
  facet normal 0 1 0
    outer loop
      vertex -9.19741 15 8.57642
      vertex -24.9019 15 8.5
      vertex -24.8782 15 8.54663
    endloop
  endfacet
  facet normal 0 1 0
    outer loop
      vertex -9.05881 15 8.3044
      vertex -24.9019 15 8.5
      vertex -9.19741 15 8.57642
    endloop
  endfacet
  facet normal 0 1 0
    outer loop
      vertex -9.03109 15 8.25
      vertex -24.9019 15 8.5
      vertex -9.05881 15 8.3044
    endloop
  endfacet
  facet normal 0 1 0
    outer loop
      vertex -24.9019 15 8.5
      vertex -9.03109 15 8.25
      vertex -24.9304 15 8.45611
    endloop
  endfacet
  facet normal 0 1 0
    outer loop
      vertex -9.03109 15 8.25
      vertex -25.0729 15 8.23664
      vertex -24.9304 15 8.45611
    endloop
  endfacet
  facet normal 0 1 0
    outer loop
      vertex -8.99783 15 8.19879
      vertex -25.0729 15 8.23664
      vertex -9.03109 15 8.25
    endloop
  endfacet
  facet normal 0 1 0
    outer loop
      vertex -8.83156 15 7.94275
      vertex -25.0729 15 8.23664
      vertex -8.99783 15 8.19879
    endloop
  endfacet
  facet normal 0 1 0
    outer loop
      vertex -25.0729 15 8.23664
      vertex -8.83156 15 7.94275
      vertex -25.2706 15 7.99261
    endloop
  endfacet
  facet normal 0 1 0
    outer loop
      vertex -8.60101 15 7.65804
      vertex -25.2706 15 7.99261
      vertex -8.83156 15 7.94275
    endloop
  endfacet
  facet normal 0 1 0
    outer loop
      vertex -25.2706 15 7.99261
      vertex -8.60101 15 7.65804
      vertex -25.4926 15 7.77057
    endloop
  endfacet
  facet normal 0 1 0
    outer loop
      vertex -8.34196 15 7.39899
      vertex -25.4926 15 7.77057
      vertex -8.60101 15 7.65804
    endloop
  endfacet
  facet normal 0 1 0
    outer loop
      vertex -25.4926 15 7.77057
      vertex -8.34196 15 7.39899
      vertex -25.7366 15 7.57295
    endloop
  endfacet
  facet normal 0 1 0
    outer loop
      vertex -8.05725 15 7.16844
      vertex -25.7366 15 7.57295
      vertex -8.34196 15 7.39899
    endloop
  endfacet
  facet normal 0 1 0
    outer loop
      vertex -25.7366 15 7.57295
      vertex -8.05725 15 7.16844
      vertex -26 15 7.40192
    endloop
  endfacet
  facet normal 0 1 0
    outer loop
      vertex -7.75 15 6.96891
      vertex -26 15 7.40192
      vertex -8.05725 15 7.16844
    endloop
  endfacet
  facet normal 0 1 0
    outer loop
      vertex -26 15 7.40192
      vertex -7.75 15 6.96891
      vertex -26.2798 15 7.25936
    endloop
  endfacet
  facet normal 0 1 0
    outer loop
      vertex 1.83697e-15 15 0
      vertex -7.75 15 6.96891
      vertex -7.42358 15 6.80259
    endloop
  endfacet
  facet normal 0 1 0
    outer loop
      vertex -7.75 15 6.96891
      vertex 1.83697e-15 15 0
      vertex -26.2798 15 7.25936
    endloop
  endfacet
  facet normal 0 1 0
    outer loop
      vertex 1.83697e-15 15 0
      vertex -7.42358 15 6.80259
      vertex -7.08156 15 6.6713
    endloop
  endfacet
  facet normal 0 1 0
    outer loop
      vertex -26.2798 15 7.25936
      vertex 1.83697e-15 15 0
      vertex -26.5729 15 7.14683
    endloop
  endfacet
  facet normal 0 1 0
    outer loop
      vertex -30.5 15 15
      vertex -45.5 15 10
      vertex -45.5 15 15
    endloop
  endfacet
  facet normal 0 1 -0
    outer loop
      vertex -30.5 15 10
      vertex -45.5 15 10
      vertex -30.5 15 15
    endloop
  endfacet
  facet normal 0 1 0
    outer loop
      vertex -30.4836 15 9.68641
      vertex -45.5 15 10
      vertex -30.5 15 10
    endloop
  endfacet
  facet normal 0 1 0
    outer loop
      vertex -30.4836 15 9.68641
      vertex -45.5192 15 9.63415
      vertex -45.5 15 10
    endloop
  endfacet
  facet normal 0 1 0
    outer loop
      vertex -30.4344 15 9.37627
      vertex -45.5192 15 9.63415
      vertex -30.4836 15 9.68641
    endloop
  endfacet
  facet normal 0 1 0
    outer loop
      vertex -30.4344 15 9.37627
      vertex -45.5765 15 9.27231
      vertex -45.5192 15 9.63415
    endloop
  endfacet
  facet normal 0 1 0
    outer loop
      vertex -30.3532 15 9.07295
      vertex -45.5765 15 9.27231
      vertex -30.4344 15 9.37627
    endloop
  endfacet
  facet normal 0 1 0
    outer loop
      vertex -30.3532 15 9.07295
      vertex -45.6713 15 8.91844
      vertex -45.5765 15 9.27231
    endloop
  endfacet
  facet normal 0 1 0
    outer loop
      vertex -30.2406 15 8.77979
      vertex -45.6713 15 8.91844
      vertex -30.3532 15 9.07295
    endloop
  endfacet
  facet normal 0 1 0
    outer loop
      vertex -30.2406 15 8.77979
      vertex -45.8026 15 8.57642
      vertex -45.6713 15 8.91844
    endloop
  endfacet
  facet normal 0 1 0
    outer loop
      vertex -30.1218 15 8.54663
      vertex -45.8026 15 8.57642
      vertex -30.2406 15 8.77979
    endloop
  endfacet
  facet normal 0 1 0
    outer loop
      vertex -30.0981 15 8.5
      vertex -45.8026 15 8.57642
      vertex -30.1218 15 8.54663
    endloop
  endfacet
  facet normal 0 1 0
    outer loop
      vertex -45.9689 15 8.25
      vertex -30.0981 15 8.5
      vertex -30.0696 15 8.45611
    endloop
  endfacet
  facet normal 0 1 0
    outer loop
      vertex -30.0981 15 8.5
      vertex -45.9412 15 8.3044
      vertex -45.8026 15 8.57642
    endloop
  endfacet
  facet normal 0 1 0
    outer loop
      vertex -30.0981 15 8.5
      vertex -45.9689 15 8.25
      vertex -45.9412 15 8.3044
    endloop
  endfacet
  facet normal 0 1 0
    outer loop
      vertex -29.927 15 8.23664
      vertex -45.9689 15 8.25
      vertex -30.0696 15 8.45611
    endloop
  endfacet
  facet normal 0 1 0
    outer loop
      vertex -29.927 15 8.23664
      vertex -46.0022 15 8.19879
      vertex -45.9689 15 8.25
    endloop
  endfacet
  facet normal 0 1 0
    outer loop
      vertex -46.1684 15 7.94275
      vertex -29.927 15 8.23664
      vertex -29.7294 15 7.99261
    endloop
  endfacet
  facet normal 0 1 0
    outer loop
      vertex -29.927 15 8.23664
      vertex -46.1684 15 7.94275
      vertex -46.0022 15 8.19879
    endloop
  endfacet
  facet normal 0 1 0
    outer loop
      vertex -46.399 15 7.65804
      vertex -29.7294 15 7.99261
      vertex -29.5074 15 7.77057
    endloop
  endfacet
  facet normal 0 1 0
    outer loop
      vertex -29.7294 15 7.99261
      vertex -46.399 15 7.65804
      vertex -46.1684 15 7.94275
    endloop
  endfacet
  facet normal 0 1 0
    outer loop
      vertex -46.658 15 7.39899
      vertex -29.5074 15 7.77057
      vertex -29.2634 15 7.57295
    endloop
  endfacet
  facet normal 0 1 0
    outer loop
      vertex -46.9427 15 7.16844
      vertex -29.2634 15 7.57295
      vertex -29 15 7.40192
    endloop
  endfacet
  facet normal 0 1 0
    outer loop
      vertex -29.5074 15 7.77057
      vertex -46.658 15 7.39899
      vertex -46.399 15 7.65804
    endloop
  endfacet
  facet normal 0 1 0
    outer loop
      vertex -47.25 15 6.96891
      vertex -29 15 7.40192
      vertex -28.7202 15 7.25936
    endloop
  endfacet
  facet normal 0 1 0
    outer loop
      vertex -29.2634 15 7.57295
      vertex -46.9427 15 7.16844
      vertex -46.658 15 7.39899
    endloop
  endfacet
  facet normal 0 1 0
    outer loop
      vertex -55 15 -6.73556e-15
      vertex -28.7202 15 7.25936
      vertex -28.427 15 7.14683
    endloop
  endfacet
  facet normal 0 1 0
    outer loop
      vertex -55 15 -6.73556e-15
      vertex -28.427 15 7.14683
      vertex -28.1237 15 7.06556
    endloop
  endfacet
  facet normal 0 1 0
    outer loop
      vertex -55 15 -6.73556e-15
      vertex -28.1237 15 7.06556
      vertex -27.8136 15 7.01643
    endloop
  endfacet
  facet normal 0 1 0
    outer loop
      vertex -55 15 -6.73556e-15
      vertex -27.5 15 7
      vertex 1.83697e-15 15 0
    endloop
  endfacet
  facet normal 0 1 0
    outer loop
      vertex -29 15 7.40192
      vertex -47.25 15 6.96891
      vertex -46.9427 15 7.16844
    endloop
  endfacet
  facet normal 0 1 0
    outer loop
      vertex 1.83697e-15 15 0
      vertex -7.08156 15 6.6713
      vertex -6.72769 15 6.57648
    endloop
  endfacet
  facet normal 0 1 0
    outer loop
      vertex -26.5729 15 7.14683
      vertex 1.83697e-15 15 0
      vertex -26.8763 15 7.06556
    endloop
  endfacet
  facet normal 0 1 0
    outer loop
      vertex -55 15 -6.73556e-15
      vertex -47.25 15 6.96891
      vertex -28.7202 15 7.25936
    endloop
  endfacet
  facet normal 0 1 0
    outer loop
      vertex 1.83697e-15 15 0
      vertex -6.72769 15 6.57648
      vertex -6.36585 15 6.51917
    endloop
  endfacet
  facet normal 0 1 0
    outer loop
      vertex -47.25 15 6.96891
      vertex -55 15 -6.73556e-15
      vertex -47.5764 15 6.80259
    endloop
  endfacet
  facet normal 0 1 0
    outer loop
      vertex -26.8763 15 7.06556
      vertex 1.83697e-15 15 0
      vertex -27.1864 15 7.01643
    endloop
  endfacet
  facet normal 0 1 0
    outer loop
      vertex -47.5764 15 6.80259
      vertex -55 15 -6.73556e-15
      vertex -47.9184 15 6.6713
    endloop
  endfacet
  facet normal 0 1 0
    outer loop
      vertex -27.1864 15 7.01643
      vertex 1.83697e-15 15 0
      vertex -27.5 15 7
    endloop
  endfacet
  facet normal 0 1 0
    outer loop
      vertex -47.9184 15 6.6713
      vertex -55 15 -6.73556e-15
      vertex -48.2723 15 6.57648
    endloop
  endfacet
  facet normal 0 1 0
    outer loop
      vertex 1.83697e-15 15 0
      vertex -6.36585 15 6.51917
      vertex -6 15 6.5
    endloop
  endfacet
  facet normal 0 1 0
    outer loop
      vertex -27.5 15 7
      vertex -55 15 -6.73556e-15
      vertex -27.8136 15 7.01643
    endloop
  endfacet
  facet normal 0 1 -0
    outer loop
      vertex -52.5 15 10
      vertex -55 15 15
      vertex -52.5 15 15
    endloop
  endfacet
  facet normal 0 1 0
    outer loop
      vertex -52.4808 15 9.63415
      vertex -55 15 15
      vertex -52.5 15 10
    endloop
  endfacet
  facet normal 0 1 0
    outer loop
      vertex -52.4235 15 9.27231
      vertex -55 15 15
      vertex -52.4808 15 9.63415
    endloop
  endfacet
  facet normal 0 1 0
    outer loop
      vertex -55 15 -6.73556e-15
      vertex -52.4235 15 9.27231
      vertex -52.3287 15 8.91844
    endloop
  endfacet
  facet normal 0 1 0
    outer loop
      vertex -55 15 -6.73556e-15
      vertex -52.3287 15 8.91844
      vertex -52.1974 15 8.57642
    endloop
  endfacet
  facet normal 0 1 0
    outer loop
      vertex -55 15 -6.73556e-15
      vertex -52.0588 15 8.3044
      vertex -52.0311 15 8.25
    endloop
  endfacet
  facet normal 0 1 0
    outer loop
      vertex -55 15 -6.73556e-15
      vertex -51.9978 15 8.19879
      vertex -51.8316 15 7.94275
    endloop
  endfacet
  facet normal 0 1 0
    outer loop
      vertex -48.6341 15 6.51917
      vertex -55 15 -6.73556e-15
      vertex -49 15 6.5
    endloop
  endfacet
  facet normal 0 1 0
    outer loop
      vertex -52.4235 15 9.27231
      vertex -55 15 -6.73556e-15
      vertex -55 15 15
    endloop
  endfacet
  facet normal 0 1 0
    outer loop
      vertex -52.0588 15 8.3044
      vertex -55 15 -6.73556e-15
      vertex -52.1974 15 8.57642
    endloop
  endfacet
  facet normal 0 1 0
    outer loop
      vertex -51.9978 15 8.19879
      vertex -55 15 -6.73556e-15
      vertex -52.0311 15 8.25
    endloop
  endfacet
  facet normal 0 1 0
    outer loop
      vertex -51.601 15 7.65804
      vertex -55 15 -6.73556e-15
      vertex -51.8316 15 7.94275
    endloop
  endfacet
  facet normal 0 1 0
    outer loop
      vertex -51.342 15 7.39899
      vertex -55 15 -6.73556e-15
      vertex -51.601 15 7.65804
    endloop
  endfacet
  facet normal 0 1 0
    outer loop
      vertex -51.0572 15 7.16844
      vertex -55 15 -6.73556e-15
      vertex -51.342 15 7.39899
    endloop
  endfacet
  facet normal 0 1 0
    outer loop
      vertex -50.75 15 6.96891
      vertex -55 15 -6.73556e-15
      vertex -51.0572 15 7.16844
    endloop
  endfacet
  facet normal 0 1 0
    outer loop
      vertex -50.4236 15 6.80259
      vertex -55 15 -6.73556e-15
      vertex -50.75 15 6.96891
    endloop
  endfacet
  facet normal 0 1 0
    outer loop
      vertex -50.0816 15 6.6713
      vertex -55 15 -6.73556e-15
      vertex -50.4236 15 6.80259
    endloop
  endfacet
  facet normal 0 1 0
    outer loop
      vertex -49.7277 15 6.57648
      vertex -55 15 -6.73556e-15
      vertex -50.0816 15 6.6713
    endloop
  endfacet
  facet normal 0 1 0
    outer loop
      vertex -49.3658 15 6.51917
      vertex -55 15 -6.73556e-15
      vertex -49.7277 15 6.57648
    endloop
  endfacet
  facet normal 0 1 0
    outer loop
      vertex -49 15 6.5
      vertex -55 15 -6.73556e-15
      vertex -49.3658 15 6.51917
    endloop
  endfacet
  facet normal -0 0 1
    outer loop
      vertex -2.5 15 15
      vertex 0 10 15
      vertex 0 15 15
    endloop
  endfacet
  facet normal 0 0 1
    outer loop
      vertex 0 10 15
      vertex -2.5 15 15
      vertex -2.5 10 15
    endloop
  endfacet
  facet normal -0 0 1
    outer loop
      vertex -55 15 15
      vertex -52.5 10 15
      vertex -52.5 15 15
    endloop
  endfacet
  facet normal 0 0 1
    outer loop
      vertex -52.5 10 15
      vertex -55 15 15
      vertex -55 10 15
    endloop
  endfacet
  facet normal -0 0 1
    outer loop
      vertex -24.5 15 15
      vertex -9.5 10 15
      vertex -9.5 15 15
    endloop
  endfacet
  facet normal 0 0 1
    outer loop
      vertex -9.5 10 15
      vertex -24.5 15 15
      vertex -24.5 10 15
    endloop
  endfacet
  facet normal -0 0 1
    outer loop
      vertex -45.5 15 15
      vertex -30.5 10 15
      vertex -30.5 15 15
    endloop
  endfacet
  facet normal 0 0 1
    outer loop
      vertex -30.5 10 15
      vertex -45.5 15 15
      vertex -45.5 10 15
    endloop
  endfacet
  facet normal 0 -1 0
    outer loop
      vertex -45.5 10 10
      vertex -30.5 10 15
      vertex -45.5 10 15
    endloop
  endfacet
  facet normal 0 -1 0
    outer loop
      vertex -45.5 10 10
      vertex -30.5 10 10
      vertex -30.5 10 15
    endloop
  endfacet
  facet normal 0 -1 0
    outer loop
      vertex -45.5 10 10
      vertex -30.4836 10 9.68641
      vertex -30.5 10 10
    endloop
  endfacet
  facet normal 0 -1 0
    outer loop
      vertex -45.5192 10 9.63415
      vertex -30.4836 10 9.68641
      vertex -45.5 10 10
    endloop
  endfacet
  facet normal 0 -1 0
    outer loop
      vertex -45.5192 10 9.63415
      vertex -30.4344 10 9.37627
      vertex -30.4836 10 9.68641
    endloop
  endfacet
  facet normal 0 -1 0
    outer loop
      vertex -45.5765 10 9.27231
      vertex -30.4344 10 9.37627
      vertex -45.5192 10 9.63415
    endloop
  endfacet
  facet normal 0 -1 0
    outer loop
      vertex -45.5765 10 9.27231
      vertex -30.3532 10 9.07295
      vertex -30.4344 10 9.37627
    endloop
  endfacet
  facet normal 0 -1 0
    outer loop
      vertex -45.6713 10 8.91844
      vertex -30.3532 10 9.07295
      vertex -45.5765 10 9.27231
    endloop
  endfacet
  facet normal 0 -1 0
    outer loop
      vertex -45.6713 10 8.91844
      vertex -30.2406 10 8.77979
      vertex -30.3532 10 9.07295
    endloop
  endfacet
  facet normal 0 -1 0
    outer loop
      vertex -45.8026 10 8.57642
      vertex -30.2406 10 8.77979
      vertex -45.6713 10 8.91844
    endloop
  endfacet
  facet normal 0 -1 0
    outer loop
      vertex -45.8026 10 8.57642
      vertex -30.0981 10 8.5
      vertex -30.2406 10 8.77979
    endloop
  endfacet
  facet normal 0 -1 0
    outer loop
      vertex -45.9689 10 8.25
      vertex -30.0981 10 8.5
      vertex -45.8026 10 8.57642
    endloop
  endfacet
  facet normal 0 -1 0
    outer loop
      vertex -45.9689 10 8.25
      vertex -29.927 10 8.23664
      vertex -30.0981 10 8.5
    endloop
  endfacet
  facet normal 0 -1 0
    outer loop
      vertex -46.1684 10 7.94275
      vertex -29.927 10 8.23664
      vertex -45.9689 10 8.25
    endloop
  endfacet
  facet normal 0 -1 -0
    outer loop
      vertex -29.927 10 8.23664
      vertex -46.1684 10 7.94275
      vertex -29.7294 10 7.99261
    endloop
  endfacet
  facet normal 0 -1 0
    outer loop
      vertex -46.399 10 7.65804
      vertex -29.7294 10 7.99261
      vertex -46.1684 10 7.94275
    endloop
  endfacet
  facet normal 0 -1 -0
    outer loop
      vertex -29.7294 10 7.99261
      vertex -46.399 10 7.65804
      vertex -29.5074 10 7.77057
    endloop
  endfacet
  facet normal 0 -1 0
    outer loop
      vertex -46.658 10 7.39899
      vertex -29.5074 10 7.77057
      vertex -46.399 10 7.65804
    endloop
  endfacet
  facet normal 0 -1 -0
    outer loop
      vertex -29.5074 10 7.77057
      vertex -46.658 10 7.39899
      vertex -29.2634 10 7.57295
    endloop
  endfacet
  facet normal 0 -1 0
    outer loop
      vertex -46.9427 10 7.16844
      vertex -29.2634 10 7.57295
      vertex -46.658 10 7.39899
    endloop
  endfacet
  facet normal 0 -1 -0
    outer loop
      vertex -29.2634 10 7.57295
      vertex -46.9427 10 7.16844
      vertex -29 10 7.40192
    endloop
  endfacet
  facet normal 0 -1 0
    outer loop
      vertex -47.25 10 6.96891
      vertex -29 10 7.40192
      vertex -46.9427 10 7.16844
    endloop
  endfacet
  facet normal 0 -1 -0
    outer loop
      vertex -29 10 7.40192
      vertex -47.25 10 6.96891
      vertex -28.7202 10 7.25936
    endloop
  endfacet
  facet normal 0 -1 0
    outer loop
      vertex -55 10 -6.73556e-15
      vertex -28.7202 10 7.25936
      vertex -47.25 10 6.96891
    endloop
  endfacet
  facet normal 0 -1 -0
    outer loop
      vertex -28.7202 10 7.25936
      vertex -55 10 -6.73556e-15
      vertex -28.427 10 7.14683
    endloop
  endfacet
  facet normal 0 -1 -0
    outer loop
      vertex -28.427 10 7.14683
      vertex -55 10 -6.73556e-15
      vertex -28.1237 10 7.06556
    endloop
  endfacet
  facet normal 0 -1 -0
    outer loop
      vertex -28.1237 10 7.06556
      vertex -55 10 -6.73556e-15
      vertex -27.8136 10 7.01643
    endloop
  endfacet
  facet normal 0 -1 0
    outer loop
      vertex -24.5 10 10
      vertex -9.5 10 15
      vertex -24.5 10 15
    endloop
  endfacet
  facet normal 0 -1 0
    outer loop
      vertex -24.5 10 10
      vertex -9.5 10 10
      vertex -9.5 10 15
    endloop
  endfacet
  facet normal 0 -1 0
    outer loop
      vertex -24.5164 10 9.68641
      vertex -9.5 10 10
      vertex -24.5 10 10
    endloop
  endfacet
  facet normal 0 -1 0
    outer loop
      vertex -24.5164 10 9.68641
      vertex -9.48083 10 9.63415
      vertex -9.5 10 10
    endloop
  endfacet
  facet normal 0 -1 0
    outer loop
      vertex -24.5656 10 9.37627
      vertex -9.48083 10 9.63415
      vertex -24.5164 10 9.68641
    endloop
  endfacet
  facet normal 0 -1 0
    outer loop
      vertex -24.5656 10 9.37627
      vertex -9.42352 10 9.27231
      vertex -9.48083 10 9.63415
    endloop
  endfacet
  facet normal 0 -1 0
    outer loop
      vertex -24.6468 10 9.07295
      vertex -9.42352 10 9.27231
      vertex -24.5656 10 9.37627
    endloop
  endfacet
  facet normal 0 -1 0
    outer loop
      vertex -24.6468 10 9.07295
      vertex -9.3287 10 8.91844
      vertex -9.42352 10 9.27231
    endloop
  endfacet
  facet normal 0 -1 0
    outer loop
      vertex -24.7594 10 8.77979
      vertex -9.3287 10 8.91844
      vertex -24.6468 10 9.07295
    endloop
  endfacet
  facet normal 0 -1 0
    outer loop
      vertex -24.7594 10 8.77979
      vertex -9.19741 10 8.57642
      vertex -9.3287 10 8.91844
    endloop
  endfacet
  facet normal 0 -1 0
    outer loop
      vertex -24.9019 10 8.5
      vertex -9.19741 10 8.57642
      vertex -24.7594 10 8.77979
    endloop
  endfacet
  facet normal 0 -1 0
    outer loop
      vertex -24.9019 10 8.5
      vertex -9.03109 10 8.25
      vertex -9.19741 10 8.57642
    endloop
  endfacet
  facet normal 0 -1 0
    outer loop
      vertex -25.0729 10 8.23664
      vertex -9.03109 10 8.25
      vertex -24.9019 10 8.5
    endloop
  endfacet
  facet normal 0 -1 0
    outer loop
      vertex -8.83156 10 7.94275
      vertex -25.0729 10 8.23664
      vertex -25.2706 10 7.99261
    endloop
  endfacet
  facet normal 0 -1 0
    outer loop
      vertex -25.0729 10 8.23664
      vertex -8.83156 10 7.94275
      vertex -9.03109 10 8.25
    endloop
  endfacet
  facet normal 0 -1 0
    outer loop
      vertex -8.60101 10 7.65804
      vertex -25.2706 10 7.99261
      vertex -25.4926 10 7.77057
    endloop
  endfacet
  facet normal 0 -1 0
    outer loop
      vertex -25.2706 10 7.99261
      vertex -8.60101 10 7.65804
      vertex -8.83156 10 7.94275
    endloop
  endfacet
  facet normal 0 -1 0
    outer loop
      vertex -8.34196 10 7.39899
      vertex -25.4926 10 7.77057
      vertex -25.7366 10 7.57295
    endloop
  endfacet
  facet normal 0 -1 0
    outer loop
      vertex -8.05725 10 7.16844
      vertex -25.7366 10 7.57295
      vertex -26 10 7.40192
    endloop
  endfacet
  facet normal 0 -1 0
    outer loop
      vertex -25.4926 10 7.77057
      vertex -8.34196 10 7.39899
      vertex -8.60101 10 7.65804
    endloop
  endfacet
  facet normal 0 -1 0
    outer loop
      vertex -7.75 10 6.96891
      vertex -26 10 7.40192
      vertex -26.2798 10 7.25936
    endloop
  endfacet
  facet normal 0 -1 0
    outer loop
      vertex -25.7366 10 7.57295
      vertex -8.05725 10 7.16844
      vertex -8.34196 10 7.39899
    endloop
  endfacet
  facet normal 0 -1 0
    outer loop
      vertex 1.83697e-15 10 0
      vertex -26.2798 10 7.25936
      vertex -26.5729 10 7.14683
    endloop
  endfacet
  facet normal 0 -1 0
    outer loop
      vertex 1.83697e-15 10 0
      vertex -26.5729 10 7.14683
      vertex -26.8763 10 7.06556
    endloop
  endfacet
  facet normal 0 -1 0
    outer loop
      vertex 1.83697e-15 10 0
      vertex -26.8763 10 7.06556
      vertex -27.1864 10 7.01643
    endloop
  endfacet
  facet normal 0 -1 0
    outer loop
      vertex 1.83697e-15 10 0
      vertex -27.1864 10 7.01643
      vertex -27.5 10 7
    endloop
  endfacet
  facet normal 0 -1 0
    outer loop
      vertex -26 10 7.40192
      vertex -7.75 10 6.96891
      vertex -8.05725 10 7.16844
    endloop
  endfacet
  facet normal 0 -1 -0
    outer loop
      vertex -27.8136 10 7.01643
      vertex -55 10 -6.73556e-15
      vertex -27.5 10 7
    endloop
  endfacet
  facet normal 0 -1 0
    outer loop
      vertex -55 10 -6.73556e-15
      vertex -47.25 10 6.96891
      vertex -47.5764 10 6.80259
    endloop
  endfacet
  facet normal -0 -1 0
    outer loop
      vertex 1.83697e-15 10 0
      vertex -27.5 10 7
      vertex -55 10 -6.73556e-15
    endloop
  endfacet
  facet normal 0 -1 0
    outer loop
      vertex -55 10 -6.73556e-15
      vertex -47.5764 10 6.80259
      vertex -47.9184 10 6.6713
    endloop
  endfacet
  facet normal 0 -1 0
    outer loop
      vertex -26.2798 10 7.25936
      vertex 1.83697e-15 10 0
      vertex -7.75 10 6.96891
    endloop
  endfacet
  facet normal 0 -1 0
    outer loop
      vertex -55 10 -6.73556e-15
      vertex -47.9184 10 6.6713
      vertex -48.2723 10 6.57648
    endloop
  endfacet
  facet normal 0 -1 0
    outer loop
      vertex -7.75 10 6.96891
      vertex 1.83697e-15 10 0
      vertex -7.42358 10 6.80259
    endloop
  endfacet
  facet normal 0 -1 0
    outer loop
      vertex -55 10 -6.73556e-15
      vertex -48.2723 10 6.57648
      vertex -48.6341 10 6.51917
    endloop
  endfacet
  facet normal 0 -1 0
    outer loop
      vertex -7.42358 10 6.80259
      vertex 1.83697e-15 10 0
      vertex -7.08156 10 6.6713
    endloop
  endfacet
  facet normal 0 -1 0
    outer loop
      vertex -55 10 -6.73556e-15
      vertex -48.6341 10 6.51917
      vertex -49 10 6.5
    endloop
  endfacet
  facet normal 0 -1 0
    outer loop
      vertex -7.08156 10 6.6713
      vertex 1.83697e-15 10 0
      vertex -6.72769 10 6.57648
    endloop
  endfacet
  facet normal 0 -1 0
    outer loop
      vertex -55 10 15
      vertex -52.5 10 10
      vertex -52.5 10 15
    endloop
  endfacet
  facet normal 0 -1 0
    outer loop
      vertex -55 10 15
      vertex -52.4808 10 9.63415
      vertex -52.5 10 10
    endloop
  endfacet
  facet normal 0 -1 0
    outer loop
      vertex -55 10 15
      vertex -52.4235 10 9.27231
      vertex -52.4808 10 9.63415
    endloop
  endfacet
  facet normal 0 -1 0
    outer loop
      vertex -55 10 -6.73556e-15
      vertex -52.4235 10 9.27231
      vertex -55 10 15
    endloop
  endfacet
  facet normal 0 -1 -0
    outer loop
      vertex -52.4235 10 9.27231
      vertex -55 10 -6.73556e-15
      vertex -52.3287 10 8.91844
    endloop
  endfacet
  facet normal 0 -1 0
    outer loop
      vertex -6.36585 10 6.51917
      vertex 1.83697e-15 10 0
      vertex -6 10 6.5
    endloop
  endfacet
  facet normal 0 -1 0
    outer loop
      vertex -55 10 -6.73556e-15
      vertex -49 10 6.5
      vertex -49.3658 10 6.51917
    endloop
  endfacet
  facet normal 0 -1 0
    outer loop
      vertex -6.72769 10 6.57648
      vertex 1.83697e-15 10 0
      vertex -6.36585 10 6.51917
    endloop
  endfacet
  facet normal 0 -1 -0
    outer loop
      vertex -49.7277 10 6.57648
      vertex -55 10 -6.73556e-15
      vertex -49.3658 10 6.51917
    endloop
  endfacet
  facet normal 0 -1 -0
    outer loop
      vertex -50.0816 10 6.6713
      vertex -55 10 -6.73556e-15
      vertex -49.7277 10 6.57648
    endloop
  endfacet
  facet normal 0 -1 -0
    outer loop
      vertex -50.4236 10 6.80259
      vertex -55 10 -6.73556e-15
      vertex -50.0816 10 6.6713
    endloop
  endfacet
  facet normal 0 -1 -0
    outer loop
      vertex -50.75 10 6.96891
      vertex -55 10 -6.73556e-15
      vertex -50.4236 10 6.80259
    endloop
  endfacet
  facet normal 0 -1 -0
    outer loop
      vertex -51.0572 10 7.16844
      vertex -55 10 -6.73556e-15
      vertex -50.75 10 6.96891
    endloop
  endfacet
  facet normal 0 -1 -0
    outer loop
      vertex -51.342 10 7.39899
      vertex -55 10 -6.73556e-15
      vertex -51.0572 10 7.16844
    endloop
  endfacet
  facet normal 0 -1 -0
    outer loop
      vertex -51.601 10 7.65804
      vertex -55 10 -6.73556e-15
      vertex -51.342 10 7.39899
    endloop
  endfacet
  facet normal 0 -1 -0
    outer loop
      vertex -51.8316 10 7.94275
      vertex -55 10 -6.73556e-15
      vertex -51.601 10 7.65804
    endloop
  endfacet
  facet normal 0 -1 -0
    outer loop
      vertex -52.0311 10 8.25
      vertex -55 10 -6.73556e-15
      vertex -51.8316 10 7.94275
    endloop
  endfacet
  facet normal 0 -1 -0
    outer loop
      vertex -52.1974 10 8.57642
      vertex -55 10 -6.73556e-15
      vertex -52.0311 10 8.25
    endloop
  endfacet
  facet normal 0 -1 -0
    outer loop
      vertex -52.3287 10 8.91844
      vertex -55 10 -6.73556e-15
      vertex -52.1974 10 8.57642
    endloop
  endfacet
  facet normal 0 -1 0
    outer loop
      vertex -2.5 10 10
      vertex 0 10 15
      vertex -2.5 10 15
    endloop
  endfacet
  facet normal 0 -1 0
    outer loop
      vertex -2.51917 10 9.63415
      vertex 0 10 15
      vertex -2.5 10 10
    endloop
  endfacet
  facet normal 0 -1 0
    outer loop
      vertex -2.57648 10 9.27231
      vertex 0 10 15
      vertex -2.51917 10 9.63415
    endloop
  endfacet
  facet normal 0 -1 0
    outer loop
      vertex 1.83697e-15 10 0
      vertex -2.57648 10 9.27231
      vertex -2.6713 10 8.91844
    endloop
  endfacet
  facet normal 0 -1 0
    outer loop
      vertex 1.83697e-15 10 0
      vertex -2.6713 10 8.91844
      vertex -2.80259 10 8.57642
    endloop
  endfacet
  facet normal 0 -1 0
    outer loop
      vertex -2.57648 10 9.27231
      vertex 1.83697e-15 10 0
      vertex 0 10 15
    endloop
  endfacet
  facet normal 0 -1 0
    outer loop
      vertex -2.96891 10 8.25
      vertex 1.83697e-15 10 0
      vertex -2.80259 10 8.57642
    endloop
  endfacet
  facet normal 0 -1 0
    outer loop
      vertex -3.16844 10 7.94275
      vertex 1.83697e-15 10 0
      vertex -2.96891 10 8.25
    endloop
  endfacet
  facet normal 0 -1 0
    outer loop
      vertex -3.39899 10 7.65804
      vertex 1.83697e-15 10 0
      vertex -3.16844 10 7.94275
    endloop
  endfacet
  facet normal 0 -1 0
    outer loop
      vertex -3.65804 10 7.39899
      vertex 1.83697e-15 10 0
      vertex -3.39899 10 7.65804
    endloop
  endfacet
  facet normal 0 -1 0
    outer loop
      vertex -3.94275 10 7.16844
      vertex 1.83697e-15 10 0
      vertex -3.65804 10 7.39899
    endloop
  endfacet
  facet normal 0 -1 0
    outer loop
      vertex -4.25 10 6.96891
      vertex 1.83697e-15 10 0
      vertex -3.94275 10 7.16844
    endloop
  endfacet
  facet normal 0 -1 0
    outer loop
      vertex -4.57642 10 6.80259
      vertex 1.83697e-15 10 0
      vertex -4.25 10 6.96891
    endloop
  endfacet
  facet normal 0 -1 0
    outer loop
      vertex -4.91844 10 6.6713
      vertex 1.83697e-15 10 0
      vertex -4.57642 10 6.80259
    endloop
  endfacet
  facet normal 0 -1 0
    outer loop
      vertex -5.27231 10 6.57648
      vertex 1.83697e-15 10 0
      vertex -4.91844 10 6.6713
    endloop
  endfacet
  facet normal 0 -1 0
    outer loop
      vertex -5.63415 10 6.51917
      vertex 1.83697e-15 10 0
      vertex -5.27231 10 6.57648
    endloop
  endfacet
  facet normal 0 -1 0
    outer loop
      vertex 1.83697e-15 10 0
      vertex -5.63415 10 6.51917
      vertex -6 10 6.5
    endloop
  endfacet
  facet normal -0.891008 0 0.453988
    outer loop
      vertex -2.80259 15 8.57642
      vertex -2.94119 15 8.3044
      vertex -2.80259 10 8.57642
    endloop
  endfacet
  facet normal 0.891007 0 0.453989
    outer loop
      vertex -9.19741 15 8.57642
      vertex -9.19741 10 8.57642
      vertex -9.05881 15 8.3044
    endloop
  endfacet
  facet normal 0.998629 -0 0.0523367
    outer loop
      vertex -9.5 10 10
      vertex -9.48083 15 9.63415
      vertex -9.5 15 10
    endloop
  endfacet
  facet normal 0.998629 0 0.0523367
    outer loop
      vertex -9.48083 15 9.63415
      vertex -9.5 10 10
      vertex -9.48083 10 9.63415
    endloop
  endfacet
  facet normal 1 -0 0
    outer loop
      vertex -9.5 10 15
      vertex -9.5 15 10
      vertex -9.5 15 15
    endloop
  endfacet
  facet normal 1 0 0
    outer loop
      vertex -9.5 15 10
      vertex -9.5 10 15
      vertex -9.5 10 10
    endloop
  endfacet
  facet normal -0.0523367 0 0.998629
    outer loop
      vertex -6 15 6.5
      vertex -5.63415 10 6.51917
      vertex -5.63415 15 6.51917
    endloop
  endfacet
  facet normal -0.0523367 0 0.998629
    outer loop
      vertex -5.63415 10 6.51917
      vertex -6 15 6.5
      vertex -6 10 6.5
    endloop
  endfacet
  facet normal 0.0523365 0 0.99863
    outer loop
      vertex -6.36585 15 6.51917
      vertex -6 10 6.5
      vertex -6 15 6.5
    endloop
  endfacet
  facet normal 0.0523365 0 0.99863
    outer loop
      vertex -6 10 6.5
      vertex -6.36585 15 6.51917
      vertex -6.36585 10 6.51917
    endloop
  endfacet
  facet normal 0.891007 3.04825e-08 0.45399
    outer loop
      vertex -9.03109 10 8.25
      vertex -9.05881 15 8.3044
      vertex -9.19741 10 8.57642
    endloop
  endfacet
  facet normal 0.891009 8.65909e-08 0.453986
    outer loop
      vertex -9.05881 15 8.3044
      vertex -9.03109 10 8.25
      vertex -9.03109 15 8.25
    endloop
  endfacet
  facet normal -0.965926 0 0.25882
    outer loop
      vertex -2.6713 10 8.91844
      vertex -2.57648 15 9.27231
      vertex -2.6713 15 8.91844
    endloop
  endfacet
  facet normal -0.965926 0 0.25882
    outer loop
      vertex -2.57648 15 9.27231
      vertex -2.6713 10 8.91844
      vertex -2.57648 10 9.27231
    endloop
  endfacet
  facet normal 0.987688 -0 0.156435
    outer loop
      vertex -9.48083 10 9.63415
      vertex -9.42352 15 9.27231
      vertex -9.48083 15 9.63415
    endloop
  endfacet
  facet normal 0.987688 0 0.156435
    outer loop
      vertex -9.42352 15 9.27231
      vertex -9.48083 10 9.63415
      vertex -9.42352 10 9.27231
    endloop
  endfacet
  facet normal 0.93358 -0 0.358368
    outer loop
      vertex -9.3287 10 8.91844
      vertex -9.19741 15 8.57642
      vertex -9.3287 15 8.91844
    endloop
  endfacet
  facet normal 0.93358 0 0.358368
    outer loop
      vertex -9.19741 15 8.57642
      vertex -9.3287 10 8.91844
      vertex -9.19741 10 8.57642
    endloop
  endfacet
  facet normal -0.707107 0 0.707107
    outer loop
      vertex -3.65804 10 7.39899
      vertex -3.39899 15 7.65804
      vertex -3.65804 15 7.39899
    endloop
  endfacet
  facet normal -0.707107 0 0.707107
    outer loop
      vertex -3.39899 15 7.65804
      vertex -3.65804 10 7.39899
      vertex -3.39899 10 7.65804
    endloop
  endfacet
  facet normal -0.987688 0 0.156435
    outer loop
      vertex -2.57648 10 9.27231
      vertex -2.51917 15 9.63415
      vertex -2.57648 15 9.27231
    endloop
  endfacet
  facet normal -0.987688 0 0.156435
    outer loop
      vertex -2.51917 15 9.63415
      vertex -2.57648 10 9.27231
      vertex -2.51917 10 9.63415
    endloop
  endfacet
  facet normal -0.99863 0 0.0523339
    outer loop
      vertex -2.51917 10 9.63415
      vertex -2.5 15 10
      vertex -2.51917 15 9.63415
    endloop
  endfacet
  facet normal -0.99863 0 0.0523339
    outer loop
      vertex -2.5 15 10
      vertex -2.51917 10 9.63415
      vertex -2.5 10 10
    endloop
  endfacet
  facet normal -1 0 0
    outer loop
      vertex -2.5 10 10
      vertex -2.5 15 15
      vertex -2.5 15 10
    endloop
  endfacet
  facet normal -1 -0 0
    outer loop
      vertex -2.5 15 15
      vertex -2.5 10 10
      vertex -2.5 10 15
    endloop
  endfacet
  facet normal -0.93358 0 0.358368
    outer loop
      vertex -2.80259 10 8.57642
      vertex -2.6713 15 8.91844
      vertex -2.80259 15 8.57642
    endloop
  endfacet
  facet normal -0.93358 0 0.358368
    outer loop
      vertex -2.6713 15 8.91844
      vertex -2.80259 10 8.57642
      vertex -2.6713 10 8.91844
    endloop
  endfacet
  facet normal 0.965926 -0 0.25882
    outer loop
      vertex -9.42352 10 9.27231
      vertex -9.3287 15 8.91844
      vertex -9.42352 15 9.27231
    endloop
  endfacet
  facet normal 0.965926 0 0.25882
    outer loop
      vertex -9.3287 15 8.91844
      vertex -9.42352 10 9.27231
      vertex -9.3287 10 8.91844
    endloop
  endfacet
  facet normal -0.156435 0 0.987688
    outer loop
      vertex -5.63415 15 6.51917
      vertex -5.27231 10 6.57648
      vertex -5.27231 15 6.57648
    endloop
  endfacet
  facet normal -0.156435 0 0.987688
    outer loop
      vertex -5.27231 10 6.57648
      vertex -5.63415 15 6.51917
      vertex -5.63415 10 6.51917
    endloop
  endfacet
  facet normal -0.54464 0 0.83867
    outer loop
      vertex -4.25 15 6.96891
      vertex -3.94275 10 7.16844
      vertex -3.94275 15 7.16844
    endloop
  endfacet
  facet normal -0.54464 0 0.83867
    outer loop
      vertex -3.94275 10 7.16844
      vertex -4.25 15 6.96891
      vertex -4.25 10 6.96891
    endloop
  endfacet
  facet normal 0.156435 0 0.987688
    outer loop
      vertex -6.72769 15 6.57648
      vertex -6.36585 10 6.51917
      vertex -6.36585 15 6.51917
    endloop
  endfacet
  facet normal 0.156435 0 0.987688
    outer loop
      vertex -6.36585 10 6.51917
      vertex -6.72769 15 6.57648
      vertex -6.72769 10 6.57648
    endloop
  endfacet
  facet normal -0.25882 0 0.965926
    outer loop
      vertex -5.27231 15 6.57648
      vertex -4.91844 10 6.6713
      vertex -4.91844 15 6.6713
    endloop
  endfacet
  facet normal -0.25882 0 0.965926
    outer loop
      vertex -4.91844 10 6.6713
      vertex -5.27231 15 6.57648
      vertex -5.27231 10 6.57648
    endloop
  endfacet
  facet normal -0.62932 0 0.777146
    outer loop
      vertex -3.94275 15 7.16844
      vertex -3.65804 10 7.39899
      vertex -3.65804 15 7.39899
    endloop
  endfacet
  facet normal -0.62932 0 0.777146
    outer loop
      vertex -3.65804 10 7.39899
      vertex -3.94275 15 7.16844
      vertex -3.94275 10 7.16844
    endloop
  endfacet
  facet normal -0.838671 1.51839e-07 0.544639
    outer loop
      vertex -2.96891 10 8.25
      vertex -3.00217 15 8.19879
      vertex -3.16844 10 7.94275
    endloop
  endfacet
  facet normal -0.838673 1.03881e-07 0.544635
    outer loop
      vertex -3.00217 15 8.19879
      vertex -2.96891 10 8.25
      vertex -2.96891 15 8.25
    endloop
  endfacet
  facet normal -0.891006 8.65921e-08 0.453992
    outer loop
      vertex -2.96891 10 8.25
      vertex -2.94119 15 8.3044
      vertex -2.96891 15 8.25
    endloop
  endfacet
  facet normal -0.891007 1.15456e-07 0.45399
    outer loop
      vertex -2.94119 15 8.3044
      vertex -2.96891 10 8.25
      vertex -2.80259 10 8.57642
    endloop
  endfacet
  facet normal 0.707107 -0 0.707107
    outer loop
      vertex -8.60101 10 7.65804
      vertex -8.34196 15 7.39899
      vertex -8.60101 15 7.65804
    endloop
  endfacet
  facet normal 0.707107 0 0.707107
    outer loop
      vertex -8.34196 15 7.39899
      vertex -8.60101 10 7.65804
      vertex -8.34196 10 7.39899
    endloop
  endfacet
  facet normal 0.777146 -0 0.62932
    outer loop
      vertex -8.83156 10 7.94275
      vertex -8.60101 15 7.65804
      vertex -8.83156 15 7.94275
    endloop
  endfacet
  facet normal 0.777146 0 0.62932
    outer loop
      vertex -8.60101 15 7.65804
      vertex -8.83156 10 7.94275
      vertex -8.60101 10 7.65804
    endloop
  endfacet
  facet normal 0.453989 0 0.891007
    outer loop
      vertex -7.75 15 6.96891
      vertex -7.42358 10 6.80259
      vertex -7.42358 15 6.80259
    endloop
  endfacet
  facet normal 0.453989 0 0.891007
    outer loop
      vertex -7.42358 10 6.80259
      vertex -7.75 15 6.96891
      vertex -7.75 10 6.96891
    endloop
  endfacet
  facet normal 0.358368 0 0.93358
    outer loop
      vertex -7.42358 15 6.80259
      vertex -7.08156 10 6.6713
      vertex -7.08156 15 6.6713
    endloop
  endfacet
  facet normal 0.358368 0 0.93358
    outer loop
      vertex -7.08156 10 6.6713
      vertex -7.42358 15 6.80259
      vertex -7.42358 10 6.80259
    endloop
  endfacet
  facet normal -0.777146 0 0.62932
    outer loop
      vertex -3.39899 10 7.65804
      vertex -3.16844 15 7.94275
      vertex -3.39899 15 7.65804
    endloop
  endfacet
  facet normal -0.777146 0 0.62932
    outer loop
      vertex -3.16844 15 7.94275
      vertex -3.39899 10 7.65804
      vertex -3.16844 10 7.94275
    endloop
  endfacet
  facet normal -0.83867 0 0.544641
    outer loop
      vertex -3.16844 15 7.94275
      vertex -3.16844 10 7.94275
      vertex -3.00217 15 8.19879
    endloop
  endfacet
  facet normal 0.838675 1.0388e-07 0.544633
    outer loop
      vertex -9.03109 10 8.25
      vertex -8.99783 15 8.19879
      vertex -9.03109 15 8.25
    endloop
  endfacet
  facet normal 0.838671 1.9183e-07 0.544639
    outer loop
      vertex -8.99783 15 8.19879
      vertex -9.03109 10 8.25
      vertex -8.83156 10 7.94275
    endloop
  endfacet
  facet normal 0.838669 0 0.544641
    outer loop
      vertex -8.83156 15 7.94275
      vertex -8.99783 15 8.19879
      vertex -8.83156 10 7.94275
    endloop
  endfacet
  facet normal 0.25882 0 0.965926
    outer loop
      vertex -7.08156 15 6.6713
      vertex -6.72769 10 6.57648
      vertex -6.72769 15 6.57648
    endloop
  endfacet
  facet normal 0.25882 0 0.965926
    outer loop
      vertex -6.72769 10 6.57648
      vertex -7.08156 15 6.6713
      vertex -7.08156 10 6.6713
    endloop
  endfacet
  facet normal -0.358368 0 0.93358
    outer loop
      vertex -4.91844 15 6.6713
      vertex -4.57642 10 6.80259
      vertex -4.57642 15 6.80259
    endloop
  endfacet
  facet normal -0.358368 0 0.93358
    outer loop
      vertex -4.57642 10 6.80259
      vertex -4.91844 15 6.6713
      vertex -4.91844 10 6.6713
    endloop
  endfacet
  facet normal -0.453989 0 0.891007
    outer loop
      vertex -4.57642 15 6.80259
      vertex -4.25 10 6.96891
      vertex -4.25 15 6.96891
    endloop
  endfacet
  facet normal -0.453989 0 0.891007
    outer loop
      vertex -4.25 10 6.96891
      vertex -4.57642 15 6.80259
      vertex -4.57642 10 6.80259
    endloop
  endfacet
  facet normal 0.62932 0 0.777146
    outer loop
      vertex -8.34196 15 7.39899
      vertex -8.05725 10 7.16844
      vertex -8.05725 15 7.16844
    endloop
  endfacet
  facet normal 0.62932 0 0.777146
    outer loop
      vertex -8.05725 10 7.16844
      vertex -8.34196 15 7.39899
      vertex -8.34196 10 7.39899
    endloop
  endfacet
  facet normal 0.54464 0 0.83867
    outer loop
      vertex -8.05725 15 7.16844
      vertex -7.75 10 6.96891
      vertex -7.75 15 6.96891
    endloop
  endfacet
  facet normal 0.54464 0 0.83867
    outer loop
      vertex -7.75 10 6.96891
      vertex -8.05725 15 7.16844
      vertex -8.05725 10 7.16844
    endloop
  endfacet
  facet normal -0.777146 0 0.62932
    outer loop
      vertex -46.399 10 7.65804
      vertex -46.1684 15 7.94275
      vertex -46.399 15 7.65804
    endloop
  endfacet
  facet normal -0.777146 0 0.62932
    outer loop
      vertex -46.1684 15 7.94275
      vertex -46.399 10 7.65804
      vertex -46.1684 10 7.94275
    endloop
  endfacet
  facet normal -0.965924 0 0.258827
    outer loop
      vertex -45.6713 10 8.91844
      vertex -45.5765 15 9.27231
      vertex -45.6713 15 8.91844
    endloop
  endfacet
  facet normal -0.965924 0 0.258827
    outer loop
      vertex -45.5765 15 9.27231
      vertex -45.6713 10 8.91844
      vertex -45.5765 10 9.27231
    endloop
  endfacet
  facet normal 0.0523368 0 0.998629
    outer loop
      vertex -49.3658 15 6.51917
      vertex -49 10 6.5
      vertex -49 15 6.5
    endloop
  endfacet
  facet normal 0.0523368 0 0.998629
    outer loop
      vertex -49 10 6.5
      vertex -49.3658 15 6.51917
      vertex -49.3658 10 6.51917
    endloop
  endfacet
  facet normal 0.838669 0 0.544641
    outer loop
      vertex -51.8316 15 7.94275
      vertex -51.9978 15 8.19879
      vertex -51.8316 10 7.94275
    endloop
  endfacet
  facet normal -1 0 0
    outer loop
      vertex -45.5 10 10
      vertex -45.5 15 15
      vertex -45.5 15 10
    endloop
  endfacet
  facet normal -1 -0 0
    outer loop
      vertex -45.5 15 15
      vertex -45.5 10 10
      vertex -45.5 10 15
    endloop
  endfacet
  facet normal 1 -0 0
    outer loop
      vertex -52.5 10 15
      vertex -52.5 15 10
      vertex -52.5 15 15
    endloop
  endfacet
  facet normal 1 0 0
    outer loop
      vertex -52.5 15 10
      vertex -52.5 10 15
      vertex -52.5 10 10
    endloop
  endfacet
  facet normal 0.99863 -0 0.0523341
    outer loop
      vertex -52.5 10 10
      vertex -52.4808 15 9.63415
      vertex -52.5 15 10
    endloop
  endfacet
  facet normal 0.99863 0 0.0523341
    outer loop
      vertex -52.4808 15 9.63415
      vertex -52.5 10 10
      vertex -52.4808 10 9.63415
    endloop
  endfacet
  facet normal 0.453988 0 0.891008
    outer loop
      vertex -50.75 15 6.96891
      vertex -50.4236 10 6.80259
      vertex -50.4236 15 6.80259
    endloop
  endfacet
  facet normal 0.453988 0 0.891008
    outer loop
      vertex -50.4236 10 6.80259
      vertex -50.75 15 6.96891
      vertex -50.75 10 6.96891
    endloop
  endfacet
  facet normal -0.890996 8.65956e-08 0.45401
    outer loop
      vertex -45.9689 10 8.25
      vertex -45.9412 15 8.3044
      vertex -45.9689 15 8.25
    endloop
  endfacet
  facet normal -0.891006 3.42051e-07 0.453992
    outer loop
      vertex -45.9412 15 8.3044
      vertex -45.9689 10 8.25
      vertex -45.8026 10 8.57642
    endloop
  endfacet
  facet normal 0.89101 -2.24439e-07 0.453984
    outer loop
      vertex -52.0311 10 8.25
      vertex -52.0588 15 8.3044
      vertex -52.1974 10 8.57642
    endloop
  endfacet
  facet normal 0.891022 8.65862e-08 0.453961
    outer loop
      vertex -52.0588 15 8.3044
      vertex -52.0311 10 8.25
      vertex -52.0311 15 8.25
    endloop
  endfacet
  facet normal -0.453992 0 0.891006
    outer loop
      vertex -47.5764 15 6.80259
      vertex -47.25 10 6.96891
      vertex -47.25 15 6.96891
    endloop
  endfacet
  facet normal -0.453992 0 0.891006
    outer loop
      vertex -47.25 10 6.96891
      vertex -47.5764 15 6.80259
      vertex -47.5764 10 6.80259
    endloop
  endfacet
  facet normal 0.258821 0 0.965925
    outer loop
      vertex -50.0816 15 6.6713
      vertex -49.7277 10 6.57648
      vertex -49.7277 15 6.57648
    endloop
  endfacet
  facet normal 0.258821 0 0.965925
    outer loop
      vertex -49.7277 10 6.57648
      vertex -50.0816 15 6.6713
      vertex -50.0816 10 6.6713
    endloop
  endfacet
  facet normal 0.156434 0 0.987688
    outer loop
      vertex -49.7277 15 6.57648
      vertex -49.3658 10 6.51917
      vertex -49.3658 15 6.51917
    endloop
  endfacet
  facet normal 0.156434 0 0.987688
    outer loop
      vertex -49.3658 10 6.51917
      vertex -49.7277 15 6.57648
      vertex -49.7277 10 6.57648
    endloop
  endfacet
  facet normal -0.987689 0 0.15643
    outer loop
      vertex -45.5765 10 9.27231
      vertex -45.5192 15 9.63415
      vertex -45.5765 15 9.27231
    endloop
  endfacet
  facet normal -0.987689 0 0.15643
    outer loop
      vertex -45.5192 15 9.63415
      vertex -45.5765 10 9.27231
      vertex -45.5192 10 9.63415
    endloop
  endfacet
  facet normal -0.99863 0 0.0523339
    outer loop
      vertex -45.5192 10 9.63415
      vertex -45.5 15 10
      vertex -45.5192 15 9.63415
    endloop
  endfacet
  facet normal -0.99863 0 0.0523339
    outer loop
      vertex -45.5 15 10
      vertex -45.5192 10 9.63415
      vertex -45.5 10 10
    endloop
  endfacet
  facet normal -0.629324 0 0.777143
    outer loop
      vertex -46.9427 15 7.16844
      vertex -46.658 10 7.39899
      vertex -46.658 15 7.39899
    endloop
  endfacet
  facet normal -0.629324 0 0.777143
    outer loop
      vertex -46.658 10 7.39899
      vertex -46.9427 15 7.16844
      vertex -46.9427 10 7.16844
    endloop
  endfacet
  facet normal -0.838673 -1.81421e-07 0.544635
    outer loop
      vertex -45.9689 10 8.25
      vertex -46.0022 15 8.19879
      vertex -46.1684 10 7.94275
    endloop
  endfacet
  facet normal -0.838661 1.03885e-07 0.544655
    outer loop
      vertex -46.0022 15 8.19879
      vertex -45.9689 10 8.25
      vertex -45.9689 15 8.25
    endloop
  endfacet
  facet normal -0.933582 0 0.358364
    outer loop
      vertex -45.8026 10 8.57642
      vertex -45.6713 15 8.91844
      vertex -45.8026 15 8.57642
    endloop
  endfacet
  facet normal -0.933582 0 0.358364
    outer loop
      vertex -45.6713 15 8.91844
      vertex -45.8026 10 8.57642
      vertex -45.6713 10 8.91844
    endloop
  endfacet
  facet normal -0.258818 0 0.965926
    outer loop
      vertex -48.2723 15 6.57648
      vertex -47.9184 10 6.6713
      vertex -47.9184 15 6.6713
    endloop
  endfacet
  facet normal -0.258818 0 0.965926
    outer loop
      vertex -47.9184 10 6.6713
      vertex -48.2723 15 6.57648
      vertex -48.2723 10 6.57648
    endloop
  endfacet
  facet normal 0.707108 -0 0.707105
    outer loop
      vertex -51.601 10 7.65804
      vertex -51.342 15 7.39899
      vertex -51.601 15 7.65804
    endloop
  endfacet
  facet normal 0.707108 0 0.707105
    outer loop
      vertex -51.342 15 7.39899
      vertex -51.601 10 7.65804
      vertex -51.342 10 7.39899
    endloop
  endfacet
  facet normal 0.777146 -0 0.62932
    outer loop
      vertex -51.8316 10 7.94275
      vertex -51.601 15 7.65804
      vertex -51.8316 15 7.94275
    endloop
  endfacet
  facet normal 0.777146 0 0.62932
    outer loop
      vertex -51.601 15 7.65804
      vertex -51.8316 10 7.94275
      vertex -51.601 10 7.65804
    endloop
  endfacet
  facet normal 0.544641 0 0.838669
    outer loop
      vertex -51.0572 15 7.16844
      vertex -50.75 10 6.96891
      vertex -50.75 15 6.96891
    endloop
  endfacet
  facet normal 0.544641 0 0.838669
    outer loop
      vertex -50.75 10 6.96891
      vertex -51.0572 15 7.16844
      vertex -51.0572 10 7.16844
    endloop
  endfacet
  facet normal -0.544636 0 0.838672
    outer loop
      vertex -47.25 15 6.96891
      vertex -46.9427 10 7.16844
      vertex -46.9427 15 7.16844
    endloop
  endfacet
  facet normal -0.544636 0 0.838672
    outer loop
      vertex -46.9427 10 7.16844
      vertex -47.25 15 6.96891
      vertex -47.25 10 6.96891
    endloop
  endfacet
  facet normal -0.838675 0 0.544632
    outer loop
      vertex -46.1684 15 7.94275
      vertex -46.1684 10 7.94275
      vertex -46.0022 15 8.19879
    endloop
  endfacet
  facet normal -0.0523363 0 0.99863
    outer loop
      vertex -49 15 6.5
      vertex -48.6341 10 6.51917
      vertex -48.6341 15 6.51917
    endloop
  endfacet
  facet normal -0.0523363 0 0.99863
    outer loop
      vertex -48.6341 10 6.51917
      vertex -49 15 6.5
      vertex -49 10 6.5
    endloop
  endfacet
  facet normal -0.156436 0 0.987688
    outer loop
      vertex -48.6341 15 6.51917
      vertex -48.2723 10 6.57648
      vertex -48.2723 15 6.57648
    endloop
  endfacet
  facet normal -0.156436 0 0.987688
    outer loop
      vertex -48.2723 10 6.57648
      vertex -48.6341 15 6.51917
      vertex -48.6341 10 6.51917
    endloop
  endfacet
  facet normal 0.358368 0 0.93358
    outer loop
      vertex -50.4236 15 6.80259
      vertex -50.0816 10 6.6713
      vertex -50.0816 15 6.6713
    endloop
  endfacet
  facet normal 0.358368 0 0.93358
    outer loop
      vertex -50.0816 10 6.6713
      vertex -50.4236 15 6.80259
      vertex -50.4236 10 6.80259
    endloop
  endfacet
  facet normal 0.629319 0 0.777147
    outer loop
      vertex -51.342 15 7.39899
      vertex -51.0572 10 7.16844
      vertex -51.0572 15 7.16844
    endloop
  endfacet
  facet normal 0.629319 0 0.777147
    outer loop
      vertex -51.0572 10 7.16844
      vertex -51.342 15 7.39899
      vertex -51.342 10 7.39899
    endloop
  endfacet
  facet normal 0.838661 1.03885e-07 0.544655
    outer loop
      vertex -52.0311 10 8.25
      vertex -51.9978 15 8.19879
      vertex -52.0311 15 8.25
    endloop
  endfacet
  facet normal 0.838668 -7.47747e-08 0.544642
    outer loop
      vertex -51.9978 15 8.19879
      vertex -52.0311 10 8.25
      vertex -51.8316 10 7.94275
    endloop
  endfacet
  facet normal 0.933579 -0 0.358373
    outer loop
      vertex -52.3287 10 8.91844
      vertex -52.1974 15 8.57642
      vertex -52.3287 15 8.91844
    endloop
  endfacet
  facet normal 0.933579 0 0.358373
    outer loop
      vertex -52.1974 15 8.57642
      vertex -52.3287 10 8.91844
      vertex -52.1974 10 8.57642
    endloop
  endfacet
  facet normal 0.987687 -0 0.15644
    outer loop
      vertex -52.4808 10 9.63415
      vertex -52.4235 15 9.27231
      vertex -52.4808 15 9.63415
    endloop
  endfacet
  facet normal 0.987687 0 0.15644
    outer loop
      vertex -52.4235 15 9.27231
      vertex -52.4808 10 9.63415
      vertex -52.4235 10 9.27231
    endloop
  endfacet
  facet normal -0.707103 0 0.707111
    outer loop
      vertex -46.658 15 7.39899
      vertex -46.399 10 7.65804
      vertex -46.399 15 7.65804
    endloop
  endfacet
  facet normal -0.707103 0 0.707111
    outer loop
      vertex -46.399 10 7.65804
      vertex -46.658 15 7.39899
      vertex -46.658 10 7.39899
    endloop
  endfacet
  facet normal -0.891008 0 0.453987
    outer loop
      vertex -45.8026 15 8.57642
      vertex -45.9412 15 8.3044
      vertex -45.8026 10 8.57642
    endloop
  endfacet
  facet normal 0.965926 -0 0.258817
    outer loop
      vertex -52.4235 10 9.27231
      vertex -52.3287 15 8.91844
      vertex -52.4235 15 9.27231
    endloop
  endfacet
  facet normal 0.965926 0 0.258817
    outer loop
      vertex -52.3287 15 8.91844
      vertex -52.4235 10 9.27231
      vertex -52.3287 10 8.91844
    endloop
  endfacet
  facet normal 0.891008 0 0.453987
    outer loop
      vertex -52.1974 15 8.57642
      vertex -52.1974 10 8.57642
      vertex -52.0588 15 8.3044
    endloop
  endfacet
  facet normal -0.358368 0 0.93358
    outer loop
      vertex -47.9184 15 6.6713
      vertex -47.5764 10 6.80259
      vertex -47.5764 15 6.80259
    endloop
  endfacet
  facet normal -0.358368 0 0.93358
    outer loop
      vertex -47.5764 10 6.80259
      vertex -47.9184 15 6.6713
      vertex -47.9184 10 6.6713
    endloop
  endfacet
  facet normal 1 -0 0
    outer loop
      vertex -30.5 10 15
      vertex -30.5 15 10
      vertex -30.5 15 15
    endloop
  endfacet
  facet normal 1 0 0
    outer loop
      vertex -30.5 15 10
      vertex -30.5 10 15
      vertex -30.5 10 10
    endloop
  endfacet
  facet normal 0.998629 -0 0.0523401
    outer loop
      vertex -30.5 10 10
      vertex -30.4836 15 9.68641
      vertex -30.5 15 10
    endloop
  endfacet
  facet normal 0.998629 0 0.0523401
    outer loop
      vertex -30.4836 15 9.68641
      vertex -30.5 10 10
      vertex -30.4836 10 9.68641
    endloop
  endfacet
  facet normal -0.453992 0 0.891006
    outer loop
      vertex -26.2798 15 7.25936
      vertex -26 10 7.40192
      vertex -26 15 7.40192
    endloop
  endfacet
  facet normal -0.453992 0 0.891006
    outer loop
      vertex -26 10 7.40192
      vertex -26.2798 15 7.25936
      vertex -26.2798 10 7.25936
    endloop
  endfacet
  facet normal -0.358368 0 0.93358
    outer loop
      vertex -26.5729 15 7.14683
      vertex -26.2798 10 7.25936
      vertex -26.2798 15 7.25936
    endloop
  endfacet
  facet normal -0.358368 0 0.93358
    outer loop
      vertex -26.2798 10 7.25936
      vertex -26.5729 15 7.14683
      vertex -26.5729 10 7.14683
    endloop
  endfacet
  facet normal 0.777145 -0 0.629321
    outer loop
      vertex -29.927 10 8.23664
      vertex -29.7294 15 7.99261
      vertex -29.927 15 8.23664
    endloop
  endfacet
  facet normal 0.777145 0 0.629321
    outer loop
      vertex -29.7294 15 7.99261
      vertex -29.927 10 8.23664
      vertex -29.7294 10 7.99261
    endloop
  endfacet
  facet normal 0.453989 0 0.891007
    outer loop
      vertex -29 15 7.40192
      vertex -28.7202 10 7.25936
      vertex -28.7202 15 7.25936
    endloop
  endfacet
  facet normal 0.453989 0 0.891007
    outer loop
      vertex -28.7202 10 7.25936
      vertex -29 15 7.40192
      vertex -29 10 7.40192
    endloop
  endfacet
  facet normal -0.258818 0 0.965926
    outer loop
      vertex -26.8763 15 7.06556
      vertex -26.5729 10 7.14683
      vertex -26.5729 15 7.14683
    endloop
  endfacet
  facet normal -0.258818 0 0.965926
    outer loop
      vertex -26.5729 10 7.14683
      vertex -26.8763 15 7.06556
      vertex -26.8763 10 7.06556
    endloop
  endfacet
  facet normal -0.83867 -3.87679e-08 0.544641
    outer loop
      vertex -24.9019 10 8.5
      vertex -24.9304 15 8.45611
      vertex -25.0729 10 8.23664
    endloop
  endfacet
  facet normal -0.838662 1.03884e-07 0.544652
    outer loop
      vertex -24.9304 15 8.45611
      vertex -24.9019 10 8.5
      vertex -24.9019 15 8.5
    endloop
  endfacet
  facet normal -1 0 0
    outer loop
      vertex -24.5 10 10
      vertex -24.5 15 15
      vertex -24.5 15 10
    endloop
  endfacet
  facet normal -1 -0 0
    outer loop
      vertex -24.5 15 15
      vertex -24.5 10 10
      vertex -24.5 10 15
    endloop
  endfacet
  facet normal 0.838679 1.03879e-07 0.544626
    outer loop
      vertex -30.0981 10 8.5
      vertex -30.0696 15 8.45611
      vertex -30.0981 15 8.5
    endloop
  endfacet
  facet normal 0.83867 2.81159e-07 0.544641
    outer loop
      vertex -30.0696 15 8.45611
      vertex -30.0981 10 8.5
      vertex -29.927 10 8.23664
    endloop
  endfacet
  facet normal 0.838667 0 0.544645
    outer loop
      vertex -29.927 15 8.23664
      vertex -30.0696 15 8.45611
      vertex -29.927 10 8.23664
    endloop
  endfacet
  facet normal 0.258818 0 0.965926
    outer loop
      vertex -28.427 15 7.14683
      vertex -28.1237 10 7.06556
      vertex -28.1237 15 7.06556
    endloop
  endfacet
  facet normal 0.258818 0 0.965926
    outer loop
      vertex -28.1237 10 7.06556
      vertex -28.427 15 7.14683
      vertex -28.427 10 7.14683
    endloop
  endfacet
  facet normal 0.707108 -0 0.707105
    outer loop
      vertex -29.7294 10 7.99261
      vertex -29.5074 15 7.77057
      vertex -29.7294 15 7.99261
    endloop
  endfacet
  facet normal 0.707108 0 0.707105
    outer loop
      vertex -29.5074 15 7.77057
      vertex -29.7294 10 7.99261
      vertex -29.5074 10 7.77057
    endloop
  endfacet
  facet normal 0.0523371 0 0.998629
    outer loop
      vertex -27.8136 15 7.01643
      vertex -27.5 10 7
      vertex -27.5 15 7
    endloop
  endfacet
  facet normal 0.0523371 0 0.998629
    outer loop
      vertex -27.5 10 7
      vertex -27.8136 15 7.01643
      vertex -27.8136 10 7.01643
    endloop
  endfacet
  facet normal -0.777145 0 0.629321
    outer loop
      vertex -25.2706 10 7.99261
      vertex -25.0729 15 8.23664
      vertex -25.2706 15 7.99261
    endloop
  endfacet
  facet normal -0.777145 0 0.629321
    outer loop
      vertex -25.0729 15 8.23664
      vertex -25.2706 10 7.99261
      vertex -25.0729 10 8.23664
    endloop
  endfacet
  facet normal -0.156435 0 0.987688
    outer loop
      vertex -27.1864 15 7.01643
      vertex -26.8763 10 7.06556
      vertex -26.8763 15 7.06556
    endloop
  endfacet
  facet normal -0.156435 0 0.987688
    outer loop
      vertex -26.8763 10 7.06556
      vertex -27.1864 15 7.01643
      vertex -27.1864 10 7.01643
    endloop
  endfacet
  facet normal -0.99863 8.31825e-09 0.0523339
    outer loop
      vertex -24.5 10 10
      vertex -24.5027 15 9.94774
      vertex -24.5164 10 9.68641
    endloop
  endfacet
  facet normal -0.99863 9.98193e-09 0.0523341
    outer loop
      vertex -24.5027 15 9.94774
      vertex -24.5 10 10
      vertex -24.5 15 10
    endloop
  endfacet
  facet normal 0.965925 -0 0.258821
    outer loop
      vertex -30.4344 10 9.37627
      vertex -30.3532 15 9.07295
      vertex -30.4344 15 9.37627
    endloop
  endfacet
  facet normal 0.965925 0 0.258821
    outer loop
      vertex -30.3532 15 9.07295
      vertex -30.4344 10 9.37627
      vertex -30.3532 10 9.07295
    endloop
  endfacet
  facet normal 0.156435 0 0.987688
    outer loop
      vertex -28.1237 15 7.06556
      vertex -27.8136 10 7.01643
      vertex -27.8136 15 7.01643
    endloop
  endfacet
  facet normal 0.156435 0 0.987688
    outer loop
      vertex -27.8136 10 7.01643
      vertex -28.1237 15 7.06556
      vertex -28.1237 10 7.06556
    endloop
  endfacet
  facet normal -0.707108 0 0.707105
    outer loop
      vertex -25.4926 10 7.77057
      vertex -25.2706 15 7.99261
      vertex -25.4926 15 7.77057
    endloop
  endfacet
  facet normal -0.707108 0 0.707105
    outer loop
      vertex -25.2706 15 7.99261
      vertex -25.4926 10 7.77057
      vertex -25.2706 10 7.99261
    endloop
  endfacet
  facet normal -0.0523368 0 0.998629
    outer loop
      vertex -27.5 15 7
      vertex -27.1864 10 7.01643
      vertex -27.1864 15 7.01643
    endloop
  endfacet
  facet normal -0.0523368 0 0.998629
    outer loop
      vertex -27.1864 10 7.01643
      vertex -27.5 15 7
      vertex -27.5 10 7
    endloop
  endfacet
  facet normal -0.544637 0 0.838672
    outer loop
      vertex -26 15 7.40192
      vertex -25.7366 10 7.57295
      vertex -25.7366 15 7.57295
    endloop
  endfacet
  facet normal -0.544637 0 0.838672
    outer loop
      vertex -25.7366 10 7.57295
      vertex -26 15 7.40192
      vertex -26 10 7.40192
    endloop
  endfacet
  facet normal -0.629321 0 0.777145
    outer loop
      vertex -25.7366 15 7.57295
      vertex -25.4926 10 7.77057
      vertex -25.4926 15 7.77057
    endloop
  endfacet
  facet normal -0.629321 0 0.777145
    outer loop
      vertex -25.4926 10 7.77057
      vertex -25.7366 15 7.57295
      vertex -25.7366 10 7.57295
    endloop
  endfacet
  facet normal 0.358368 0 0.93358
    outer loop
      vertex -28.7202 15 7.25936
      vertex -28.427 10 7.14683
      vertex -28.427 15 7.14683
    endloop
  endfacet
  facet normal 0.358368 0 0.93358
    outer loop
      vertex -28.427 10 7.14683
      vertex -28.7202 15 7.25936
      vertex -28.7202 10 7.25936
    endloop
  endfacet
  facet normal 0.629321 0 0.777145
    outer loop
      vertex -29.5074 15 7.77057
      vertex -29.2634 10 7.57295
      vertex -29.2634 15 7.57295
    endloop
  endfacet
  facet normal 0.629321 0 0.777145
    outer loop
      vertex -29.2634 10 7.57295
      vertex -29.5074 15 7.77057
      vertex -29.5074 10 7.77057
    endloop
  endfacet
  facet normal 0.891008 7.21594e-08 0.453988
    outer loop
      vertex -30.0981 10 8.5
      vertex -30.1218 15 8.54663
      vertex -30.2406 10 8.77979
    endloop
  endfacet
  facet normal 0.891008 8.65911e-08 0.453987
    outer loop
      vertex -30.1218 15 8.54663
      vertex -30.0981 10 8.5
      vertex -30.0981 15 8.5
    endloop
  endfacet
  facet normal 0.987689 -0 0.156432
    outer loop
      vertex -30.4836 10 9.68641
      vertex -30.4344 15 9.37627
      vertex -30.4836 15 9.68641
    endloop
  endfacet
  facet normal 0.987689 0 0.156432
    outer loop
      vertex -30.4344 15 9.37627
      vertex -30.4836 10 9.68641
      vertex -30.4344 10 9.37627
    endloop
  endfacet
  facet normal -0.99863 0 0.0523341
    outer loop
      vertex -24.5164 15 9.68641
      vertex -24.5164 10 9.68641
      vertex -24.5027 15 9.94774
    endloop
  endfacet
  facet normal -0.965925 0 0.258821
    outer loop
      vertex -24.6468 10 9.07295
      vertex -24.5656 15 9.37627
      vertex -24.6468 15 9.07295
    endloop
  endfacet
  facet normal -0.965925 0 0.258821
    outer loop
      vertex -24.5656 15 9.37627
      vertex -24.6468 10 9.07295
      vertex -24.5656 10 9.37627
    endloop
  endfacet
  facet normal 0.54464 0 0.83867
    outer loop
      vertex -29.2634 15 7.57295
      vertex -29 10 7.40192
      vertex -29 15 7.40192
    endloop
  endfacet
  facet normal 0.54464 0 0.83867
    outer loop
      vertex -29 10 7.40192
      vertex -29.2634 15 7.57295
      vertex -29.2634 10 7.57295
    endloop
  endfacet
  facet normal 0.93358 -0 0.358369
    outer loop
      vertex -30.3532 10 9.07295
      vertex -30.2406 15 8.77979
      vertex -30.3532 15 9.07295
    endloop
  endfacet
  facet normal 0.93358 0 0.358369
    outer loop
      vertex -30.2406 15 8.77979
      vertex -30.3532 10 9.07295
      vertex -30.2406 10 8.77979
    endloop
  endfacet
  facet normal -0.93358 0 0.358369
    outer loop
      vertex -24.7594 10 8.77979
      vertex -24.6468 15 9.07295
      vertex -24.7594 15 8.77979
    endloop
  endfacet
  facet normal -0.93358 0 0.358369
    outer loop
      vertex -24.6468 15 9.07295
      vertex -24.7594 10 8.77979
      vertex -24.6468 10 9.07295
    endloop
  endfacet
  facet normal -0.83867 0 0.54464
    outer loop
      vertex -25.0729 15 8.23664
      vertex -25.0729 10 8.23664
      vertex -24.9304 15 8.45611
    endloop
  endfacet
  facet normal -0.987689 0 0.156432
    outer loop
      vertex -24.5656 10 9.37627
      vertex -24.5164 15 9.68641
      vertex -24.5656 15 9.37627
    endloop
  endfacet
  facet normal -0.987689 0 0.156432
    outer loop
      vertex -24.5164 15 9.68641
      vertex -24.5656 10 9.37627
      vertex -24.5164 10 9.68641
    endloop
  endfacet
  facet normal 0.891008 0 0.453987
    outer loop
      vertex -30.2406 15 8.77979
      vertex -30.2406 10 8.77979
      vertex -30.1218 15 8.54663
    endloop
  endfacet
  facet normal -0.891008 0 0.453987
    outer loop
      vertex -24.7594 15 8.77979
      vertex -24.8782 15 8.54663
      vertex -24.7594 10 8.77979
    endloop
  endfacet
  facet normal -0.891008 8.65911e-08 0.453987
    outer loop
      vertex -24.9019 10 8.5
      vertex -24.8782 15 8.54663
      vertex -24.9019 15 8.5
    endloop
  endfacet
  facet normal -0.891008 7.21594e-08 0.453988
    outer loop
      vertex -24.8782 15 8.54663
      vertex -24.9019 10 8.5
      vertex -24.7594 10 8.77979
    endloop
  endfacet
endsolid OpenSCAD_Model
