<?xml version='1.0' encoding='UTF-8' standalone='no'?>
<!-- Created with Fritzing (http://www.fritzing.org/) -->
<svg xmlns:svg='http://www.w3.org/2000/svg' xmlns='http://www.w3.org/2000/svg' version='1.2' baseProfile='tiny' x='0in' y='0in' width='2.91049in' height='1.71109in' viewBox='0 0 209.555 123.199' >
<g partID='75910'><g transform='translate(119.026,49.946)' ><g transform='matrix(0,1,1,0,0,0)'  ><g id="schematic">
<circle class="other" fill="none" cx="21.9499" cy="20.1501" stroke="#000000" r="0.359999" stroke-width="1.152"/>
<circle class="other" fill="none" cx="21.9499" cy="9.35003" stroke="#000000" r="0.359999" stroke-width="1.152"/>
<rect width="2.15999" x="14.03" y="18.3501" class="other" fill="#000000" height="3.60001" stroke="none" stroke-linecap="round" stroke-width="0"/>
<rect width="2.15999" x="14.03" y="7.55002" class="other" fill="#000000" height="3.60001" stroke="none" stroke-linecap="round" stroke-width="0"/>
<rect width="2.15999" x="14.03" y="12.23" class="other" fill="#000000" height="5.04002" stroke="none" stroke-linecap="round" stroke-width="0"/>
<line class="other" stroke="#000000" stroke-linecap="round" y1="7.91002" x1="11.582" y2="21.9501" stroke-width="0.719998" x2="11.582"/>
<line class="other" stroke="#000000" stroke-linecap="round" y1="9.35003" x1="21.9499" y2="9.35003" stroke-width="0.431999" x2="16.2619"/>
<line class="other" stroke="#000000" stroke-linecap="round" y1="14.75" x1="21.9499" y2="20.1501" stroke-width="0.431999" x2="21.9499"/>
<line class="other" stroke="#000000" stroke-linecap="round" y1="20.1501" x1="16.1899" y2="20.1501" stroke-width="0.431999" x2="21.9499"/>
<line class="other" stroke="#000000" stroke-linecap="round" y1="7.55002" x1="21.9499" y2="9.35003" stroke-width="0.431999" x2="21.9499"/>
<line class="other" stroke="#000000" stroke-linecap="round" y1="9.35003" x1="21.9499" y2="9.35003" stroke-width="0.431999" x2="29.15"/>
<line class="other" stroke="#000000" stroke-linecap="round" y1="20.1501" x1="29.15" y2="20.1501" stroke-width="0.431999" x2="21.9499"/>
<line class="other" stroke="#000000" stroke-linecap="round" y1="20.1501" x1="21.9499" y2="21.9501" stroke-width="0.431999" x2="21.9499"/>
<line class="other" stroke="#000000" stroke-linecap="round" y1="14.75" x1="11.15" y2="14.75" stroke-width="0.431999" x2="7.54997"/>
<line class="other" stroke="#000000" stroke-linecap="round" y1="14.75" x1="16.1899" y2="16.1901" stroke-width="0.431999" x2="19.7899"/>
<line class="other" stroke="#000000" stroke-linecap="round" y1="16.1901" x1="19.7899" y2="13.31" stroke-width="0.431999" x2="19.7899"/>
<line class="other" stroke="#000000" stroke-linecap="round" y1="13.31" x1="19.7899" y2="14.75" stroke-width="0.431999" x2="16.1899"/>
<line class="other" stroke="#000000" stroke-linecap="round" y1="14.75" x1="19.4299" y2="14.75" stroke-width="0.431999" x2="21.9499"/>
<line class="other" stroke="#000000" stroke-linecap="round" y1="14.03" x1="19.4299" y2="14.75" stroke-width="0.863998" x2="16.9099"/>
<line class="other" stroke="#000000" stroke-linecap="round" y1="14.75" x1="16.9099" y2="15.4701" stroke-width="0.863998" x2="19.4299"/>
<line class="other" stroke="#000000" stroke-linecap="round" y1="15.4701" x1="19.4299" y2="14.75" stroke-width="0.863998" x2="19.4299"/>
<line class="other" stroke="#000000" stroke-linecap="round" y1="14.75" x1="19.4299" y2="14.75" stroke-width="0.863998" x2="18.7099"/>
<line class="other" stroke="#000000" stroke-linecap="round" y1="9.35003" x1="29.15" y2="12.59" stroke-width="0.431999" x2="29.15"/>
<line class="other" stroke="#000000" stroke-linecap="round" y1="12.59" x1="29.15" y2="20.1501" stroke-width="0.431999" x2="29.15"/>
<line class="other" stroke="#000000" stroke-linecap="round" y1="12.59" x1="29.15" y2="16.5501" stroke-width="0.431999" x2="27.3499"/>
<line class="other" stroke="#000000" stroke-linecap="round" y1="16.5501" x1="27.3499" y2="16.5501" stroke-width="0.431999" x2="30.95"/>
<line class="other" stroke="#000000" stroke-linecap="round" y1="16.5501" x1="30.95" y2="12.59" stroke-width="0.431999" x2="29.15"/>
<line class="other" stroke="#000000" stroke-linecap="round" y1="12.59" x1="27.3499" y2="12.59" stroke-width="0.431999" x2="29.15"/>
<line class="other" stroke="#000000" stroke-linecap="round" y1="12.59" x1="29.15" y2="12.59" stroke-width="0.431999" x2="30.95"/>
<line class="other" stroke="#000000" stroke-linecap="round" y1="12.59" x1="30.95" y2="11.87" stroke-width="0.431999" x2="31.67"/>
<line class="other" stroke="#000000" stroke-linecap="round" y1="12.59" x1="27.3499" y2="13.31" stroke-width="0.431999" x2="26.6299"/>
<line class="pin" connectorname="D" stroke="#787878" id="connector1pin" stroke-linecap="round" y1="0.350001" x1="21.9499" y2="7.55002" stroke-width="0.699997" x2="21.9499"/>
<g width="0.000283464" x="21.9499" y="0.350001" class="terminal" fill="none" height="0.000283466" stroke="none" id="connector1terminal" stroke-width="0"/>
<g transform="matrix(1, 0, 0, 1, 20.9, 3.95001)">
<g>
<g transform="rotate(270)">
<g>
<text x="0" y="0" class="text" font-family="'Droid Sans'" fill="#8c8c8c" text-anchor="middle" stroke="none" stroke-width="0" font-size="2.49999">3</text>
</g>
</g>
</g>
</g>
<line class="pin" connectorname="G" stroke="#787878" id="connector0pin" stroke-linecap="round" y1="14.75" x1="0.349998" y2="14.75" stroke-width="0.699997" x2="7.54997"/>
<g width="0.000283464" x="0.349998" y="14.75" class="terminal" fill="none" height="0.000283466" stroke="none" id="connector0terminal" stroke-width="0"/>
<text x="3.94998" y="13.7001" class="text" font-family="'Droid Sans'" fill="#8c8c8c" text-anchor="middle" stroke="none" stroke-width="0" font-size="2.49999">1</text>
<line class="pin" connectorname="S" stroke="#787878" id="connector2pin" stroke-linecap="round" y1="29.1502" x1="21.9499" y2="21.9501" stroke-width="0.699997" x2="21.9499"/>
<g width="0.000283464" x="21.9499" y="29.1502" class="terminal" fill="none" height="0.000283466" stroke="none" id="connector2terminal" stroke-width="0"/>
<g transform="matrix(1, 0, 0, 1, 20.9, 25.5501)">
<g>
<g transform="rotate(270)">
<g>
<text x="0" y="0" class="text" font-family="'Droid Sans'" fill="#8c8c8c" text-anchor="middle" stroke="none" stroke-width="0" font-size="2.49999">2</text>
</g>
</g>
</g>
</g>
</g>
</g></g></g><g partID='85700'><g transform='translate(83.3774,92.9841)' ><g transform='matrix(1,0,0,-1,0,0)'  ><g id="schematic">
<polyline fill="none" points="4.125,17.557,21.6,27.474,21.6,37.743" stroke="#000000" stroke-linecap="round" stroke-width="0.7"/>
<polygon points="4.23,19.505,-0.022,15.188,5.819,16.8"/>
<polyline fill="none" points="14.401,36,14.401,34.559,11.521,32.4,18.001,28.799,11.521,25.2,18.001,21.6,11.521,18,18.001,14.4,11.521,10.8,14.401,8.64,14.401,7.2" stroke="#000000" stroke-linecap="round" stroke-width="0.7"/>
<g fill="none" id="connector1terminal" d="M21.968,43.2l0,-1.054l-0.672,0.017L21.296,43.2L21.968,43.2z"/>
<line fill="none" stroke="#787878" id="connector1pin" stroke-linecap="round" y1="42.85" stroke-width="0.7" x1="21.621" y2="36" x2="21.621"/>
<line fill="none" stroke="#787878" id="connector0pin" stroke-linecap="round" y1="42.85" stroke-width="0.7" x1="14.4" y2="36" x2="14.4"/>
<g fill="none" id="connector0terminal" d="M14.047,42.176l0.703,0L14.719,43.2l-0.656,0L14.047,42.176z"/>
<g transform="matrix(1, 0, 0, 1, 11.521, 40.0005)">
<text fill="#787878" font-family="'DroidSans'" font-size="2">1</text>
</g>
<g transform="matrix(1, 0, 0, 1, 19.1245, 40.0005)">
<text fill="#787878" font-family="'DroidSans'" font-size="2">3</text>
</g>
<line fill="none" stroke="#787878" id="connector2pin" stroke-linecap="round" y1="0.35" stroke-width="0.7" x1="14.4" y2="7.55" x2="14.4"/>
<g fill="none" id="connector2terminal" d="M14.15,-0.25l0,0.5l0.497,-0.01l0.003,-0.49L14.15,-0.25z"/>
<g transform="matrix(1, 0, 0, 1, 11.521, 4.9751)">
<text fill="#787878" font-family="'DroidSans'" font-size="2">2</text>
</g>
</g>
</g></g></g><g partID='76240'><g transform='translate(39.8257,32.8)' ><g xmlns="http://www.w3.org/2000/svg" id="schematic">
<line class="other" xmlns="http://www.w3.org/2000/svg" stroke="#000000" stroke-linecap="round" y1="3.096" x1="7.55002" y2="0.216" stroke-width="0.432002" x2="8.63003"/>
<line class="other" xmlns="http://www.w3.org/2000/svg" stroke="#000000" stroke-linecap="round" y1="0.216" x1="8.63003" y2="5.976" stroke-width="0.432002" x2="10.43"/>
<line class="other" xmlns="http://www.w3.org/2000/svg" stroke="#000000" stroke-linecap="round" y1="5.976" x1="10.43" y2="0.216" stroke-width="0.432002" x2="12.23"/>
<line class="other" xmlns="http://www.w3.org/2000/svg" stroke="#000000" stroke-linecap="round" y1="0.216" x1="12.23" y2="5.976" stroke-width="0.432002" x2="14.03"/>
<line class="other" xmlns="http://www.w3.org/2000/svg" stroke="#000000" stroke-linecap="round" y1="5.976" x1="14.03" y2="0.216" stroke-width="0.432002" x2="15.8301"/>
<line class="other" xmlns="http://www.w3.org/2000/svg" stroke="#000000" stroke-linecap="round" y1="0.216" x1="15.8301" y2="5.976" stroke-width="0.432002" x2="17.6301"/>
<line class="other" xmlns="http://www.w3.org/2000/svg" stroke="#000000" stroke-linecap="round" y1="5.976" x1="17.6301" y2="0.216" stroke-width="0.432002" x2="19.4301"/>
<line class="other" xmlns="http://www.w3.org/2000/svg" stroke="#000000" stroke-linecap="round" y1="0.216" x1="19.4301" y2="5.976" stroke-width="0.432002" x2="21.2301"/>
<line class="other" xmlns="http://www.w3.org/2000/svg" stroke="#000000" stroke-linecap="round" y1="5.976" x1="21.2301" y2="3.096" stroke-width="0.432002" x2="21.9501"/>
<line class="pin" xmlns="http://www.w3.org/2000/svg" connectorname="2" stroke="#787878" id="connector1pin" stroke-linecap="round" y1="3.096" x1="29.1502" y2="3.096" stroke-width="0.700001" x2="21.9501"/>
<g width="0.000283466" x="29.1502" y="3.096" class="terminal" fill="none" xmlns="http://www.w3.org/2000/svg" height="0.000283465" stroke="none" id="connector1terminal" stroke-width="0"/>
<text x="25.5501" y="2.046" class="text" font-family="'Droid Sans'" fill="#8c8c8c" xmlns="http://www.w3.org/2000/svg" text-anchor="middle" stroke="none" stroke-width="0" font-size="2.50001">2</text>
<line class="pin" xmlns="http://www.w3.org/2000/svg" connectorname="1" stroke="#787878" id="connector0pin" stroke-linecap="round" y1="3.096" x1="0.350001" y2="3.096" stroke-width="0.700001" x2="7.55002"/>
<g width="0.000283466" x="0.350001" y="3.096" class="terminal" fill="none" xmlns="http://www.w3.org/2000/svg" height="0.000283465" stroke="none" id="connector0terminal" stroke-width="0"/>
<text x="3.95001" y="2.046" class="text" font-family="'Droid Sans'" fill="#8c8c8c" xmlns="http://www.w3.org/2000/svg" text-anchor="middle" stroke="none" stroke-width="0" font-size="2.50001">1</text>
</g>
</g></g><g partID='76350'><g transform='translate(69.326,104.8)' ><g transform='matrix(-1,0,0,1,0,0)'  ><g xmlns="http://www.w3.org/2000/svg" id="schematic">
<line class="other" xmlns="http://www.w3.org/2000/svg" stroke="#000000" stroke-linecap="round" y1="3.096" x1="7.55002" y2="0.216" stroke-width="0.432002" x2="8.63003"/>
<line class="other" xmlns="http://www.w3.org/2000/svg" stroke="#000000" stroke-linecap="round" y1="0.216" x1="8.63003" y2="5.976" stroke-width="0.432002" x2="10.43"/>
<line class="other" xmlns="http://www.w3.org/2000/svg" stroke="#000000" stroke-linecap="round" y1="5.976" x1="10.43" y2="0.216" stroke-width="0.432002" x2="12.23"/>
<line class="other" xmlns="http://www.w3.org/2000/svg" stroke="#000000" stroke-linecap="round" y1="0.216" x1="12.23" y2="5.976" stroke-width="0.432002" x2="14.03"/>
<line class="other" xmlns="http://www.w3.org/2000/svg" stroke="#000000" stroke-linecap="round" y1="5.976" x1="14.03" y2="0.216" stroke-width="0.432002" x2="15.8301"/>
<line class="other" xmlns="http://www.w3.org/2000/svg" stroke="#000000" stroke-linecap="round" y1="0.216" x1="15.8301" y2="5.976" stroke-width="0.432002" x2="17.6301"/>
<line class="other" xmlns="http://www.w3.org/2000/svg" stroke="#000000" stroke-linecap="round" y1="5.976" x1="17.6301" y2="0.216" stroke-width="0.432002" x2="19.4301"/>
<line class="other" xmlns="http://www.w3.org/2000/svg" stroke="#000000" stroke-linecap="round" y1="0.216" x1="19.4301" y2="5.976" stroke-width="0.432002" x2="21.2301"/>
<line class="other" xmlns="http://www.w3.org/2000/svg" stroke="#000000" stroke-linecap="round" y1="5.976" x1="21.2301" y2="3.096" stroke-width="0.432002" x2="21.9501"/>
<line class="pin" xmlns="http://www.w3.org/2000/svg" connectorname="2" stroke="#787878" id="connector1pin" stroke-linecap="round" y1="3.096" x1="29.1502" y2="3.096" stroke-width="0.700001" x2="21.9501"/>
<g width="0.000283466" x="29.1502" y="3.096" class="terminal" fill="none" xmlns="http://www.w3.org/2000/svg" height="0.000283465" stroke="none" id="connector1terminal" stroke-width="0"/>
<text x="25.5501" y="2.046" class="text" font-family="'Droid Sans'" fill="#8c8c8c" xmlns="http://www.w3.org/2000/svg" text-anchor="middle" stroke="none" stroke-width="0" font-size="2.50001">2</text>
<line class="pin" xmlns="http://www.w3.org/2000/svg" connectorname="1" stroke="#787878" id="connector0pin" stroke-linecap="round" y1="3.096" x1="0.350001" y2="3.096" stroke-width="0.700001" x2="7.55002"/>
<g width="0.000283466" x="0.350001" y="3.096" class="terminal" fill="none" xmlns="http://www.w3.org/2000/svg" height="0.000283465" stroke="none" id="connector0terminal" stroke-width="0"/>
<text x="3.95001" y="2.046" class="text" font-family="'Droid Sans'" fill="#8c8c8c" xmlns="http://www.w3.org/2000/svg" text-anchor="middle" stroke="none" stroke-width="0" font-size="2.50001">1</text>
</g>
</g></g></g><g partID='76980'><g transform='translate(22.752,86.6463)' ><g transform='matrix(0,-1,-1,0,0,0)'  ><g xmlns="http://www.w3.org/2000/svg" id="schematic">
<line class="other" xmlns="http://www.w3.org/2000/svg" stroke="#000000" stroke-linecap="round" y1="0.576" x1="11.15" y2="22.176" stroke-width="1.152" x2="11.15"/>
<line class="other" xmlns="http://www.w3.org/2000/svg" stroke="#000000" stroke-linecap="round" y1="7.776" x1="14.75" y2="14.976" stroke-width="1.152" x2="14.75"/>
<line class="other" xmlns="http://www.w3.org/2000/svg" stroke="#000000" stroke-linecap="round" y1="0.576" x1="18.3501" y2="22.176" stroke-width="1.152" x2="18.3501"/>
<line class="other" xmlns="http://www.w3.org/2000/svg" stroke="#000000" stroke-linecap="round" y1="7.776" x1="21.9501" y2="14.976" stroke-width="1.152" x2="21.9501"/>
<line class="other" xmlns="http://www.w3.org/2000/svg" stroke="#000000" stroke-linecap="round" y1="11.376" x1="7.55002" y2="11.376" stroke-width="0.432002" x2="10.43"/>
<line class="pin" xmlns="http://www.w3.org/2000/svg" connectorname="-" stroke="#787878" id="connector1pin" stroke-linecap="round" y1="11.376" x1="29.1502" y2="11.376" stroke-width="0.700001" x2="21.9501"/>
<g width="0.000283466" x="29.1502" y="11.376" class="terminal" fill="none" xmlns="http://www.w3.org/2000/svg" height="0.000283465" stroke="none" id="connector1terminal" stroke-width="0"/>
<text x="25.5501" y="10.326" class="text" font-family="'Droid Sans'" fill="#8c8c8c" xmlns="http://www.w3.org/2000/svg" text-anchor="middle" stroke="none" stroke-width="0" font-size="2.50001">2</text>
<line class="pin" xmlns="http://www.w3.org/2000/svg" connectorname="+" stroke="#787878" id="connector0pin" stroke-linecap="round" y1="11.376" x1="0.350001" y2="11.376" stroke-width="0.700001" x2="7.55002"/>
<g width="0.000283466" x="0.350001" y="11.376" class="terminal" fill="none" xmlns="http://www.w3.org/2000/svg" height="0.000283465" stroke="none" id="connector0terminal" stroke-width="0"/>
<text x="3.95001" y="10.326" class="text" font-family="'Droid Sans'" fill="#8c8c8c" xmlns="http://www.w3.org/2000/svg" text-anchor="middle" stroke="none" stroke-width="0" font-size="2.50001">1</text>
</g>
</g></g></g><g partID='78810'><g transform='translate(6.63486,21.1616)' ><g xmlns="http://www.w3.org/2000/svg" id="schematic">
<line fill="none" xmlns="http://www.w3.org/2000/svg" stroke="#000000" stroke-linecap="round" y1="9.333" stroke-width="0.7" x1="4.741" y2="7.534" x2="4.741"/>
<line fill="none" xmlns="http://www.w3.org/2000/svg" stroke="#000000" stroke-linecap="round" y1="21.934" stroke-width="0.7" x1="4.741" y2="9.333" x2="1.142"/>
<circle fill="none" cx="4.741" xmlns="http://www.w3.org/2000/svg" cy="21.934" stroke="#000000" r="0.36" stroke-width="0.7"/>
<circle fill="none" cx="4.741" xmlns="http://www.w3.org/2000/svg" cy="7.534" stroke="#000000" r="0.36" stroke-width="0.7"/>
<line fill="none" xmlns="http://www.w3.org/2000/svg" stroke="#555555" id="connector0pin" stroke-linecap="round" y1="29.135" stroke-width="0.7" x1="4.741" y2="21.934" x2="4.741"/>
<g width="0.002" x="4.74" y="29.134" fill="none" xmlns="http://www.w3.org/2000/svg" height="0.001" id="connector0terminal"/>
<line fill="none" xmlns="http://www.w3.org/2000/svg" stroke="#555555" id="connector1pin" stroke-linecap="round" y1="0.333" stroke-width="0.7" x1="4.741" y2="7.534" x2="4.741"/>
<g width="0" x="4.741" y="0.333" fill="none" xmlns="http://www.w3.org/2000/svg" height="0.001" id="connector1terminal"/>
</g>
</g></g><g partID='84470'><g transform='translate(195.875,14.0796)' ><g id="schematic">
<g>
<path d="M13.5,14.966L9.9,14.966c-0.193,0,-0.35,-0.156,-0.35,-0.35s0.156,-0.35,0.35,-0.35L13.5,14.266c0.193,0,0.35,0.156,0.35,0.35S13.694,14.966,13.5,14.966z"/>
</g>
<g>
<path d="M9.9,14.966L6.3,14.966c-0.193,0,-0.35,-0.156,-0.35,-0.35s0.157,-0.35,0.35,-0.35l3.6,0c0.193,0,0.35,0.156,0.35,0.35S10.093,14.966,9.9,14.966z"/>
</g>
<g>
<polygon fill="#FFFFFF" points="9.9,14.616,6.3,7.416,9.9,7.416,13.5,7.416"/>
<path d="M9.9,15.398L5.734,7.066l8.333,0L9.9,15.398zM6.866,7.766L9.9,13.834l3.034,-6.068L6.866,7.766z"/>
</g>
<g>
<path d="M9.9,14.841c-0.124,0,-0.225,-0.101,-0.225,-0.225l0,-7.2c0,-0.124,0.101,-0.225,0.225,-0.225s0.225,0.101,0.225,0.225l0,7.2C10.124,14.74,10.024,14.841,9.9,14.841z"/>
</g>
<g>
<path d="M1.8,12.141c-0.058,0,-0.115,-0.021,-0.159,-0.065c-0.088,-0.088,-0.088,-0.23,0,-0.318l2.34,-2.341c0.088,-0.088,0.23,-0.088,0.318,0s0.088,0.23,0,0.318l-2.34,2.341C1.915,12.12,1.858,12.141,1.8,12.141z"/>
</g>
<g>
<path d="M2.16,15.381c-0.058,0,-0.115,-0.021,-0.159,-0.065c-0.088,-0.088,-0.088,-0.23,0,-0.318l2.34,-2.34c0.088,-0.088,0.23,-0.088,0.318,0s0.088,0.23,0,0.318l-2.34,2.34C2.276,15.359,2.218,15.381,2.16,15.381z"/>
</g>
<g id="connector0pin">
<path fill="#787878" d="M9.9,22.166c-0.193,0,-0.35,-0.156,-0.35,-0.35l0,-7.2c0,-0.193,0.156,-0.35,0.35,-0.35s0.35,0.156,0.35,0.35l0,7.2C10.249,22.01,10.093,22.166,9.9,22.166z"/>
</g>
<g id="connector0terminal">
<rect width="0.001" x="9.9" y="21.816" fill="none" height="0.001"/>
</g>
<g transform="matrix(1, 0, 0, 1, 3.429, 6.4262)">
<g>
<g transform="rotate(270)">
<g>
<g enable-background="new    ">
<path fill="#787878" d="M-11.647,5.54l-0.891,0L-12.538,5.388l0.342,-0.372c0.049,-0.053,0.093,-0.101,0.131,-0.145s0.071,-0.086,0.099,-0.128c0.026,-0.042,0.047,-0.084,0.062,-0.125c0.015,-0.043,0.021,-0.088,0.021,-0.138c0,-0.038,-0.005,-0.072,-0.017,-0.102s-0.027,-0.054,-0.047,-0.075c-0.021,-0.02,-0.045,-0.035,-0.073,-0.046s-0.06,-0.016,-0.094,-0.016c-0.062,0,-0.118,0.013,-0.167,0.038c-0.051,0.024,-0.098,0.057,-0.143,0.096l-0.1,-0.116c0.025,-0.023,0.055,-0.046,0.084,-0.065c0.029,-0.021,0.063,-0.039,0.097,-0.054s0.071,-0.026,0.109,-0.036c0.038,-0.008,0.079,-0.013,0.121,-0.013c0.063,0,0.119,0.009,0.169,0.026c0.051,0.018,0.094,0.043,0.129,0.076c0.035,0.032,0.063,0.072,0.082,0.119c0.019,0.048,0.028,0.101,0.028,0.16c0,0.056,-0.009,0.108,-0.026,0.158c-0.017,0.05,-0.041,0.1,-0.07,0.148c-0.031,0.048,-0.066,0.097,-0.109,0.146c-0.041,0.049,-0.087,0.1,-0.136,0.152L-12.32,5.37l0,0.008l0.673,0L-11.647,5.54z"/>
</g>
</g>
</g>
</g>
</g>
<g id="connector1pin">
<path fill="#787878" d="M9.9,7.766c-0.193,0,-0.35,-0.157,-0.35,-0.35l0,-7.2c0,-0.193,0.156,-0.35,0.35,-0.35s0.35,0.157,0.35,0.35l0,7.2C10.249,7.609,10.093,7.766,9.9,7.766z"/>
</g>
<g id="connector1terminal">
<polygon fill="none" points="9.9,0.216,9.901,0.216,9.901,0.216"/>
</g>
<g transform="matrix(1, 0, 0, 1, 3.429, 1.3462)">
<g>
<g transform="rotate(270)">
<g>
<g enable-background="new    ">
<path fill="#787878" d="M-2.616,5.54l-0.172,0L-2.788,4.648c0,-0.028,0,-0.058,0,-0.09s0.001,-0.063,0.002,-0.095c0.001,-0.032,0.002,-0.063,0.003,-0.092c0.001,-0.028,0.002,-0.054,0.002,-0.076c-0.011,0.012,-0.021,0.021,-0.029,0.03s-0.017,0.017,-0.026,0.024s-0.018,0.016,-0.028,0.025c-0.01,0.008,-0.021,0.019,-0.035,0.03l-0.145,0.118l-0.094,-0.12l0.374,-0.292l0.146,0L-2.618,5.54z"/>
</g>
</g>
</g>
</g>
</g>
<g>
<path d="M0.18,13.536l1.08,-2.521l1.44,1.438L0.18,13.536z"/>
</g>
<g>
<path d="M0.54,16.776l1.08,-2.521l1.438,1.438L0.54,16.776z"/>
</g>
</g>
</g></g><g partID='84450'><g transform='translate(181.475,14.0796)' ><g id="schematic">
<g>
<path d="M13.5,14.966L9.9,14.966c-0.193,0,-0.35,-0.156,-0.35,-0.35s0.156,-0.35,0.35,-0.35L13.5,14.266c0.193,0,0.35,0.156,0.35,0.35S13.694,14.966,13.5,14.966z"/>
</g>
<g>
<path d="M9.9,14.966L6.3,14.966c-0.193,0,-0.35,-0.156,-0.35,-0.35s0.157,-0.35,0.35,-0.35l3.6,0c0.193,0,0.35,0.156,0.35,0.35S10.093,14.966,9.9,14.966z"/>
</g>
<g>
<polygon fill="#FFFFFF" points="9.9,14.616,6.3,7.416,9.9,7.416,13.5,7.416"/>
<path d="M9.9,15.398L5.734,7.066l8.333,0L9.9,15.398zM6.866,7.766L9.9,13.834l3.034,-6.068L6.866,7.766z"/>
</g>
<g>
<path d="M9.9,14.841c-0.124,0,-0.225,-0.101,-0.225,-0.225l0,-7.2c0,-0.124,0.101,-0.225,0.225,-0.225s0.225,0.101,0.225,0.225l0,7.2C10.124,14.74,10.024,14.841,9.9,14.841z"/>
</g>
<g>
<path d="M1.8,12.141c-0.058,0,-0.115,-0.021,-0.159,-0.065c-0.088,-0.088,-0.088,-0.23,0,-0.318l2.34,-2.341c0.088,-0.088,0.23,-0.088,0.318,0s0.088,0.23,0,0.318l-2.34,2.341C1.915,12.12,1.858,12.141,1.8,12.141z"/>
</g>
<g>
<path d="M2.16,15.381c-0.058,0,-0.115,-0.021,-0.159,-0.065c-0.088,-0.088,-0.088,-0.23,0,-0.318l2.34,-2.34c0.088,-0.088,0.23,-0.088,0.318,0s0.088,0.23,0,0.318l-2.34,2.34C2.276,15.359,2.218,15.381,2.16,15.381z"/>
</g>
<g id="connector0pin">
<path fill="#787878" d="M9.9,22.166c-0.193,0,-0.35,-0.156,-0.35,-0.35l0,-7.2c0,-0.193,0.156,-0.35,0.35,-0.35s0.35,0.156,0.35,0.35l0,7.2C10.249,22.01,10.093,22.166,9.9,22.166z"/>
</g>
<g id="connector0terminal">
<rect width="0.001" x="9.9" y="21.816" fill="none" height="0.001"/>
</g>
<g transform="matrix(1, 0, 0, 1, 3.429, 6.4262)">
<g>
<g transform="rotate(270)">
<g>
<g enable-background="new    ">
<path fill="#787878" d="M-11.647,5.54l-0.891,0L-12.538,5.388l0.342,-0.372c0.049,-0.053,0.093,-0.101,0.131,-0.145s0.071,-0.086,0.099,-0.128c0.026,-0.042,0.047,-0.084,0.062,-0.125c0.015,-0.043,0.021,-0.088,0.021,-0.138c0,-0.038,-0.005,-0.072,-0.017,-0.102s-0.027,-0.054,-0.047,-0.075c-0.021,-0.02,-0.045,-0.035,-0.073,-0.046s-0.06,-0.016,-0.094,-0.016c-0.062,0,-0.118,0.013,-0.167,0.038c-0.051,0.024,-0.098,0.057,-0.143,0.096l-0.1,-0.116c0.025,-0.023,0.055,-0.046,0.084,-0.065c0.029,-0.021,0.063,-0.039,0.097,-0.054s0.071,-0.026,0.109,-0.036c0.038,-0.008,0.079,-0.013,0.121,-0.013c0.063,0,0.119,0.009,0.169,0.026c0.051,0.018,0.094,0.043,0.129,0.076c0.035,0.032,0.063,0.072,0.082,0.119c0.019,0.048,0.028,0.101,0.028,0.16c0,0.056,-0.009,0.108,-0.026,0.158c-0.017,0.05,-0.041,0.1,-0.07,0.148c-0.031,0.048,-0.066,0.097,-0.109,0.146c-0.041,0.049,-0.087,0.1,-0.136,0.152L-12.32,5.37l0,0.008l0.673,0L-11.647,5.54z"/>
</g>
</g>
</g>
</g>
</g>
<g id="connector1pin">
<path fill="#787878" d="M9.9,7.766c-0.193,0,-0.35,-0.157,-0.35,-0.35l0,-7.2c0,-0.193,0.156,-0.35,0.35,-0.35s0.35,0.157,0.35,0.35l0,7.2C10.249,7.609,10.093,7.766,9.9,7.766z"/>
</g>
<g id="connector1terminal">
<polygon fill="none" points="9.9,0.216,9.901,0.216,9.901,0.216"/>
</g>
<g transform="matrix(1, 0, 0, 1, 3.429, 1.3462)">
<g>
<g transform="rotate(270)">
<g>
<g enable-background="new    ">
<path fill="#787878" d="M-2.616,5.54l-0.172,0L-2.788,4.648c0,-0.028,0,-0.058,0,-0.09s0.001,-0.063,0.002,-0.095c0.001,-0.032,0.002,-0.063,0.003,-0.092c0.001,-0.028,0.002,-0.054,0.002,-0.076c-0.011,0.012,-0.021,0.021,-0.029,0.03s-0.017,0.017,-0.026,0.024s-0.018,0.016,-0.028,0.025c-0.01,0.008,-0.021,0.019,-0.035,0.03l-0.145,0.118l-0.094,-0.12l0.374,-0.292l0.146,0L-2.618,5.54z"/>
</g>
</g>
</g>
</g>
</g>
<g>
<path d="M0.18,13.536l1.08,-2.521l1.44,1.438L0.18,13.536z"/>
</g>
<g>
<path d="M0.54,16.776l1.08,-2.521l1.438,1.438L0.54,16.776z"/>
</g>
</g>
</g></g><g partID='84430'><g transform='translate(167.075,14.0796)' ><g id="schematic">
<g>
<path d="M13.5,14.966L9.9,14.966c-0.193,0,-0.35,-0.156,-0.35,-0.35s0.156,-0.35,0.35,-0.35L13.5,14.266c0.193,0,0.35,0.156,0.35,0.35S13.694,14.966,13.5,14.966z"/>
</g>
<g>
<path d="M9.9,14.966L6.3,14.966c-0.193,0,-0.35,-0.156,-0.35,-0.35s0.157,-0.35,0.35,-0.35l3.6,0c0.193,0,0.35,0.156,0.35,0.35S10.093,14.966,9.9,14.966z"/>
</g>
<g>
<polygon fill="#FFFFFF" points="9.9,14.616,6.3,7.416,9.9,7.416,13.5,7.416"/>
<path d="M9.9,15.398L5.734,7.066l8.333,0L9.9,15.398zM6.866,7.766L9.9,13.834l3.034,-6.068L6.866,7.766z"/>
</g>
<g>
<path d="M9.9,14.841c-0.124,0,-0.225,-0.101,-0.225,-0.225l0,-7.2c0,-0.124,0.101,-0.225,0.225,-0.225s0.225,0.101,0.225,0.225l0,7.2C10.124,14.74,10.024,14.841,9.9,14.841z"/>
</g>
<g>
<path d="M1.8,12.141c-0.058,0,-0.115,-0.021,-0.159,-0.065c-0.088,-0.088,-0.088,-0.23,0,-0.318l2.34,-2.341c0.088,-0.088,0.23,-0.088,0.318,0s0.088,0.23,0,0.318l-2.34,2.341C1.915,12.12,1.858,12.141,1.8,12.141z"/>
</g>
<g>
<path d="M2.16,15.381c-0.058,0,-0.115,-0.021,-0.159,-0.065c-0.088,-0.088,-0.088,-0.23,0,-0.318l2.34,-2.34c0.088,-0.088,0.23,-0.088,0.318,0s0.088,0.23,0,0.318l-2.34,2.34C2.276,15.359,2.218,15.381,2.16,15.381z"/>
</g>
<g id="connector0pin">
<path fill="#787878" d="M9.9,22.166c-0.193,0,-0.35,-0.156,-0.35,-0.35l0,-7.2c0,-0.193,0.156,-0.35,0.35,-0.35s0.35,0.156,0.35,0.35l0,7.2C10.249,22.01,10.093,22.166,9.9,22.166z"/>
</g>
<g id="connector0terminal">
<rect width="0.001" x="9.9" y="21.816" fill="none" height="0.001"/>
</g>
<g transform="matrix(1, 0, 0, 1, 3.429, 6.4262)">
<g>
<g transform="rotate(270)">
<g>
<g enable-background="new    ">
<path fill="#787878" d="M-11.647,5.54l-0.891,0L-12.538,5.388l0.342,-0.372c0.049,-0.053,0.093,-0.101,0.131,-0.145s0.071,-0.086,0.099,-0.128c0.026,-0.042,0.047,-0.084,0.062,-0.125c0.015,-0.043,0.021,-0.088,0.021,-0.138c0,-0.038,-0.005,-0.072,-0.017,-0.102s-0.027,-0.054,-0.047,-0.075c-0.021,-0.02,-0.045,-0.035,-0.073,-0.046s-0.06,-0.016,-0.094,-0.016c-0.062,0,-0.118,0.013,-0.167,0.038c-0.051,0.024,-0.098,0.057,-0.143,0.096l-0.1,-0.116c0.025,-0.023,0.055,-0.046,0.084,-0.065c0.029,-0.021,0.063,-0.039,0.097,-0.054s0.071,-0.026,0.109,-0.036c0.038,-0.008,0.079,-0.013,0.121,-0.013c0.063,0,0.119,0.009,0.169,0.026c0.051,0.018,0.094,0.043,0.129,0.076c0.035,0.032,0.063,0.072,0.082,0.119c0.019,0.048,0.028,0.101,0.028,0.16c0,0.056,-0.009,0.108,-0.026,0.158c-0.017,0.05,-0.041,0.1,-0.07,0.148c-0.031,0.048,-0.066,0.097,-0.109,0.146c-0.041,0.049,-0.087,0.1,-0.136,0.152L-12.32,5.37l0,0.008l0.673,0L-11.647,5.54z"/>
</g>
</g>
</g>
</g>
</g>
<g id="connector1pin">
<path fill="#787878" d="M9.9,7.766c-0.193,0,-0.35,-0.157,-0.35,-0.35l0,-7.2c0,-0.193,0.156,-0.35,0.35,-0.35s0.35,0.157,0.35,0.35l0,7.2C10.249,7.609,10.093,7.766,9.9,7.766z"/>
</g>
<g id="connector1terminal">
<polygon fill="none" points="9.9,0.216,9.901,0.216,9.901,0.216"/>
</g>
<g transform="matrix(1, 0, 0, 1, 3.429, 1.3462)">
<g>
<g transform="rotate(270)">
<g>
<g enable-background="new    ">
<path fill="#787878" d="M-2.616,5.54l-0.172,0L-2.788,4.648c0,-0.028,0,-0.058,0,-0.09s0.001,-0.063,0.002,-0.095c0.001,-0.032,0.002,-0.063,0.003,-0.092c0.001,-0.028,0.002,-0.054,0.002,-0.076c-0.011,0.012,-0.021,0.021,-0.029,0.03s-0.017,0.017,-0.026,0.024s-0.018,0.016,-0.028,0.025c-0.01,0.008,-0.021,0.019,-0.035,0.03l-0.145,0.118l-0.094,-0.12l0.374,-0.292l0.146,0L-2.618,5.54z"/>
</g>
</g>
</g>
</g>
</g>
<g>
<path d="M0.18,13.536l1.08,-2.521l1.44,1.438L0.18,13.536z"/>
</g>
<g>
<path d="M0.54,16.776l1.08,-2.521l1.438,1.438L0.54,16.776z"/>
</g>
</g>
</g></g><g partID='79400'><g transform='translate(152.675,14.0796)' ><g id="schematic">
<g>
<path d="M13.5,14.966L9.9,14.966c-0.193,0,-0.35,-0.156,-0.35,-0.35s0.156,-0.35,0.35,-0.35L13.5,14.266c0.193,0,0.35,0.156,0.35,0.35S13.694,14.966,13.5,14.966z"/>
</g>
<g>
<path d="M9.9,14.966L6.3,14.966c-0.193,0,-0.35,-0.156,-0.35,-0.35s0.157,-0.35,0.35,-0.35l3.6,0c0.193,0,0.35,0.156,0.35,0.35S10.093,14.966,9.9,14.966z"/>
</g>
<g>
<polygon fill="#FFFFFF" points="9.9,14.616,6.3,7.416,9.9,7.416,13.5,7.416"/>
<path d="M9.9,15.398L5.734,7.066l8.333,0L9.9,15.398zM6.866,7.766L9.9,13.834l3.034,-6.068L6.866,7.766z"/>
</g>
<g>
<path d="M9.9,14.841c-0.124,0,-0.225,-0.101,-0.225,-0.225l0,-7.2c0,-0.124,0.101,-0.225,0.225,-0.225s0.225,0.101,0.225,0.225l0,7.2C10.124,14.74,10.024,14.841,9.9,14.841z"/>
</g>
<g>
<path d="M1.8,12.141c-0.058,0,-0.115,-0.021,-0.159,-0.065c-0.088,-0.088,-0.088,-0.23,0,-0.318l2.34,-2.341c0.088,-0.088,0.23,-0.088,0.318,0s0.088,0.23,0,0.318l-2.34,2.341C1.915,12.12,1.858,12.141,1.8,12.141z"/>
</g>
<g>
<path d="M2.16,15.381c-0.058,0,-0.115,-0.021,-0.159,-0.065c-0.088,-0.088,-0.088,-0.23,0,-0.318l2.34,-2.34c0.088,-0.088,0.23,-0.088,0.318,0s0.088,0.23,0,0.318l-2.34,2.34C2.276,15.359,2.218,15.381,2.16,15.381z"/>
</g>
<g id="connector0pin">
<path fill="#787878" d="M9.9,22.166c-0.193,0,-0.35,-0.156,-0.35,-0.35l0,-7.2c0,-0.193,0.156,-0.35,0.35,-0.35s0.35,0.156,0.35,0.35l0,7.2C10.249,22.01,10.093,22.166,9.9,22.166z"/>
</g>
<g id="connector0terminal">
<rect width="0.001" x="9.9" y="21.816" fill="none" height="0.001"/>
</g>
<g transform="matrix(1, 0, 0, 1, 3.429, 6.4262)">
<g>
<g transform="rotate(270)">
<g>
<g enable-background="new    ">
<path fill="#787878" d="M-11.647,5.54l-0.891,0L-12.538,5.388l0.342,-0.372c0.049,-0.053,0.093,-0.101,0.131,-0.145s0.071,-0.086,0.099,-0.128c0.026,-0.042,0.047,-0.084,0.062,-0.125c0.015,-0.043,0.021,-0.088,0.021,-0.138c0,-0.038,-0.005,-0.072,-0.017,-0.102s-0.027,-0.054,-0.047,-0.075c-0.021,-0.02,-0.045,-0.035,-0.073,-0.046s-0.06,-0.016,-0.094,-0.016c-0.062,0,-0.118,0.013,-0.167,0.038c-0.051,0.024,-0.098,0.057,-0.143,0.096l-0.1,-0.116c0.025,-0.023,0.055,-0.046,0.084,-0.065c0.029,-0.021,0.063,-0.039,0.097,-0.054s0.071,-0.026,0.109,-0.036c0.038,-0.008,0.079,-0.013,0.121,-0.013c0.063,0,0.119,0.009,0.169,0.026c0.051,0.018,0.094,0.043,0.129,0.076c0.035,0.032,0.063,0.072,0.082,0.119c0.019,0.048,0.028,0.101,0.028,0.16c0,0.056,-0.009,0.108,-0.026,0.158c-0.017,0.05,-0.041,0.1,-0.07,0.148c-0.031,0.048,-0.066,0.097,-0.109,0.146c-0.041,0.049,-0.087,0.1,-0.136,0.152L-12.32,5.37l0,0.008l0.673,0L-11.647,5.54z"/>
</g>
</g>
</g>
</g>
</g>
<g id="connector1pin">
<path fill="#787878" d="M9.9,7.766c-0.193,0,-0.35,-0.157,-0.35,-0.35l0,-7.2c0,-0.193,0.156,-0.35,0.35,-0.35s0.35,0.157,0.35,0.35l0,7.2C10.249,7.609,10.093,7.766,9.9,7.766z"/>
</g>
<g id="connector1terminal">
<polygon fill="none" points="9.9,0.216,9.901,0.216,9.901,0.216"/>
</g>
<g transform="matrix(1, 0, 0, 1, 3.429, 1.3462)">
<g>
<g transform="rotate(270)">
<g>
<g enable-background="new    ">
<path fill="#787878" d="M-2.616,5.54l-0.172,0L-2.788,4.648c0,-0.028,0,-0.058,0,-0.09s0.001,-0.063,0.002,-0.095c0.001,-0.032,0.002,-0.063,0.003,-0.092c0.001,-0.028,0.002,-0.054,0.002,-0.076c-0.011,0.012,-0.021,0.021,-0.029,0.03s-0.017,0.017,-0.026,0.024s-0.018,0.016,-0.028,0.025c-0.01,0.008,-0.021,0.019,-0.035,0.03l-0.145,0.118l-0.094,-0.12l0.374,-0.292l0.146,0L-2.618,5.54z"/>
</g>
</g>
</g>
</g>
</g>
<g>
<path d="M0.18,13.536l1.08,-2.521l1.44,1.438L0.18,13.536z"/>
</g>
<g>
<path d="M0.54,16.776l1.08,-2.521l1.438,1.438L0.54,16.776z"/>
</g>
</g>
</g></g><g partID='79330'><g transform='translate(126.226,11.2)' ><g xmlns="http://www.w3.org/2000/svg" id="schematic">
<line class="other" xmlns="http://www.w3.org/2000/svg" stroke="#000000" stroke-linecap="round" y1="3.096" x1="7.55002" y2="0.216" stroke-width="0.432002" x2="8.63003"/>
<line class="other" xmlns="http://www.w3.org/2000/svg" stroke="#000000" stroke-linecap="round" y1="0.216" x1="8.63003" y2="5.976" stroke-width="0.432002" x2="10.43"/>
<line class="other" xmlns="http://www.w3.org/2000/svg" stroke="#000000" stroke-linecap="round" y1="5.976" x1="10.43" y2="0.216" stroke-width="0.432002" x2="12.23"/>
<line class="other" xmlns="http://www.w3.org/2000/svg" stroke="#000000" stroke-linecap="round" y1="0.216" x1="12.23" y2="5.976" stroke-width="0.432002" x2="14.03"/>
<line class="other" xmlns="http://www.w3.org/2000/svg" stroke="#000000" stroke-linecap="round" y1="5.976" x1="14.03" y2="0.216" stroke-width="0.432002" x2="15.8301"/>
<line class="other" xmlns="http://www.w3.org/2000/svg" stroke="#000000" stroke-linecap="round" y1="0.216" x1="15.8301" y2="5.976" stroke-width="0.432002" x2="17.6301"/>
<line class="other" xmlns="http://www.w3.org/2000/svg" stroke="#000000" stroke-linecap="round" y1="5.976" x1="17.6301" y2="0.216" stroke-width="0.432002" x2="19.4301"/>
<line class="other" xmlns="http://www.w3.org/2000/svg" stroke="#000000" stroke-linecap="round" y1="0.216" x1="19.4301" y2="5.976" stroke-width="0.432002" x2="21.2301"/>
<line class="other" xmlns="http://www.w3.org/2000/svg" stroke="#000000" stroke-linecap="round" y1="5.976" x1="21.2301" y2="3.096" stroke-width="0.432002" x2="21.9501"/>
<line class="pin" xmlns="http://www.w3.org/2000/svg" connectorname="2" stroke="#787878" id="connector1pin" stroke-linecap="round" y1="3.096" x1="29.1502" y2="3.096" stroke-width="0.700001" x2="21.9501"/>
<g width="0.000283466" x="29.1502" y="3.096" class="terminal" fill="none" xmlns="http://www.w3.org/2000/svg" height="0.000283465" stroke="none" id="connector1terminal" stroke-width="0"/>
<text x="25.5501" y="2.046" class="text" font-family="'Droid Sans'" fill="#8c8c8c" xmlns="http://www.w3.org/2000/svg" text-anchor="middle" stroke="none" stroke-width="0" font-size="2.50001">2</text>
<line class="pin" xmlns="http://www.w3.org/2000/svg" connectorname="1" stroke="#787878" id="connector0pin" stroke-linecap="round" y1="3.096" x1="0.350001" y2="3.096" stroke-width="0.700001" x2="7.55002"/>
<g width="0.000283466" x="0.350001" y="3.096" class="terminal" fill="none" xmlns="http://www.w3.org/2000/svg" height="0.000283465" stroke="none" id="connector0terminal" stroke-width="0"/>
<text x="3.95001" y="2.046" class="text" font-family="'Droid Sans'" fill="#8c8c8c" xmlns="http://www.w3.org/2000/svg" text-anchor="middle" stroke="none" stroke-width="0" font-size="2.50001">1</text>
</g>
</g></g><g partID='80120'><line stroke-linecap='round' stroke='#404040' x1='11.4753' y1='43.0678' x2='11.3759' y2='50.2961' stroke-width='0.699998' /></g><g partID='80500'><line stroke-linecap='round' stroke='#404040' x1='11.4753' y1='57.4181' x2='11.4753' y2='43.0678' stroke-width='0.699998' /></g><g partID='80130'><line stroke-linecap='round' stroke='#404040' x1='11.3759' y1='57.496' x2='11.4753' y2='57.4181' stroke-width='0.699998' /></g><g partID='81570'><line stroke-linecap='round' stroke='#404040' x1='40.1759' y1='122.147' x2='40.1757' y2='107.896' stroke-width='0.699998' /></g><circle  fill="black" cx="40.1757" cy="107.896" r="1.44" stroke-width="0" stroke="none" /><g partID='80810'><line stroke-linecap='round' stroke='#404040' x1='11.4753' y1='122.147' x2='40.1759' y2='122.147' stroke-width='0.699998' /></g><g partID='81680'><line stroke-linecap='round' stroke='#404040' x1='11.4753' y1='122.147' x2='11.4753' y2='122.147' stroke-width='0.699998' /></g><g partID='80820'><line stroke-linecap='round' stroke='#404040' x1='11.3759' y1='86.2961' x2='11.4753' y2='122.147' stroke-width='0.699998' /></g><g partID='80990'><line stroke-linecap='round' stroke='#404040' x1='40.1759' y1='14.3672' x2='40.1759' y2='35.8961' stroke-width='0.699998' /></g><circle  fill="black" cx="40.1759" cy="35.8961" r="1.44" stroke-width="0" stroke="none" /><g partID='81000'><line stroke-linecap='round' stroke='#404040' x1='11.3759' y1='21.4951' x2='11.4753' y2='14.3672' stroke-width='0.699998' /></g><g partID='86280'><line stroke-linecap='round' stroke='#404040' x1='11.4753' y1='14.3672' x2='40.1759' y2='14.3672' stroke-width='0.699998' /></g><g partID='81830'><line stroke-linecap='round' stroke='#404040' x1='40.1759' y1='122.147' x2='40.1757' y2='107.896' stroke-width='0.699998' /></g><circle  fill="black" cx="40.1757" cy="107.896" r="1.44" stroke-width="0" stroke="none" /><g partID='81840'><line stroke-linecap='round' stroke='#404040' x1='119.376' y1='71.8961' x2='119.255' y2='122.147' stroke-width='0.699998' /></g><g partID='81910'><line stroke-linecap='round' stroke='#404040' x1='119.255' y1='122.147' x2='40.1759' y2='122.147' stroke-width='0.699998' /></g><g partID='82000'><line stroke-linecap='round' stroke='#404040' x1='40.1759' y1='14.3672' x2='40.1759' y2='35.8961' stroke-width='0.699998' /></g><circle  fill="black" cx="40.1759" cy="35.8961" r="1.44" stroke-width="0" stroke="none" /><g partID='82010'><line stroke-linecap='round' stroke='#404040' x1='126.576' y1='14.2961' x2='40.1759' y2='14.3672' stroke-width='0.699998' /></g><g partID='82180'><line stroke-linecap='round' stroke='#404040' x1='155.376' y1='14.2961' x2='205.662' y2='14.3672' stroke-width='0.699998' /></g><g partID='84570'><line stroke-linecap='round' stroke='#404040' x1='205.662' y1='14.3672' x2='191.376' y2='14.2956' stroke-width='0.699998' /></g><g partID='84340'><line stroke-linecap='round' stroke='#404040' x1='162.611' y1='71.7683' x2='162.576' y2='35.8961' stroke-width='0.699998' /></g><g partID='84270'><line stroke-linecap='round' stroke='#404040' x1='148.176' y1='71.8961' x2='162.611' y2='71.7683' stroke-width='0.699998' /></g><circle  fill="black" cx="148.176" cy="71.8961" r="1.44" stroke-width="0" stroke="none" /><g partID='84660'><line stroke-linecap='round' stroke='#404040' x1='148.176' y1='71.8961' x2='176.961' y2='71.7683' stroke-width='0.699998' /></g><circle  fill="black" cx="148.176" cy="71.8961" r="1.44" stroke-width="0" stroke="none" /><g partID='84770'><line stroke-linecap='round' stroke='#404040' x1='176.961' y1='71.7683' x2='176.976' y2='35.8961' stroke-width='0.699998' /></g><g partID='85030'><line stroke-linecap='round' stroke='#404040' x1='191.312' y1='71.7683' x2='191.376' y2='35.8961' stroke-width='0.699998' /></g><g partID='84880'><line stroke-linecap='round' stroke='#404040' x1='148.176' y1='71.8961' x2='191.312' y2='71.7683' stroke-width='0.699998' /></g><circle  fill="black" cx="148.176" cy="71.8961" r="1.44" stroke-width="0" stroke="none" /><g partID='85200'><line stroke-linecap='round' stroke='#404040' x1='140.933' y1='71.7683' x2='205.662' y2='71.7683' stroke-width='0.699998' /></g><g partID='85390'><line stroke-linecap='round' stroke='#404040' x1='205.662' y1='71.7683' x2='205.776' y2='35.8961' stroke-width='0.699998' /></g><g partID='86040'><line stroke-linecap='round' stroke='#404040' x1='97.8823' y1='36.0453' x2='97.7759' y2='50.2961' stroke-width='0.699998' /></g><g partID='86050'><line stroke-linecap='round' stroke='#404040' x1='68.976' y1='35.8961' x2='97.8823' y2='36.0453' stroke-width='0.699998' /></g><circle  fill="black" cx="68.976" cy="35.8961" r="1.44" stroke-width="0" stroke="none" /><g partID='86140'><line stroke-linecap='round' stroke='#404040' x1='97.8823' y1='107.797' x2='97.7774' y2='92.9841' stroke-width='0.699998' /></g><g partID='86150'><line stroke-linecap='round' stroke='#404040' x1='68.9759' y1='107.896' x2='97.8823' y2='107.797' stroke-width='0.699998' /></g><circle  fill="black" cx="68.9759" cy="107.896" r="1.44" stroke-width="0" stroke="none" /><g partID='86220'><line stroke-linecap='round' stroke='#404040' x1='105.009' y1='50.3111' x2='133.776' y2='50.2961' stroke-width='0.699998' /></g><circle  fill="black" cx="133.776" cy="50.2961" r="1.44" stroke-width="0" stroke="none" /><g partID='76240' id='partLabel'><g transform='translate(69.3257,21.6)' ><g font-size='5' font-style='normal' font-weight='normal' fill='#000000' font-family="'DroidSans'" id='schematicLabel' fill-opacity='1' stroke='none' ><text x='0' y='3.75'>6.8k&#x3a9;</text></g></g></g><g partID='76350' id='partLabel'><g transform='translate(69.326,93.6)' ><g font-size='5' font-style='normal' font-weight='normal' fill='#000000' font-family="'DroidSans'" id='schematicLabel' fill-opacity='1' stroke='none' ><text x='0' y='3.75'>6.8k&#x3a9;</text></g></g></g><g partID='76980' id='partLabel'><g transform='translate(26.126,54.9203)' ><g font-size='5' font-style='normal' font-weight='normal' fill='#000000' font-family="'DroidSans'" id='schematicLabel' fill-opacity='1' stroke='none' ><text x='0' y='3.75'>4.8 V</text></g></g></g><g partID='79330' id='partLabel'><g transform='translate(155.726,0)' ><g font-size='5' font-style='normal' font-weight='normal' fill='#000000' font-family="'DroidSans'" id='schematicLabel' fill-opacity='1' stroke='none' ><text x='0' y='3.75'>15&#x3a9;</text></g></g></g><g partID='85700' id='partLabel'><g transform='translate(112.177,38.5841)' ><g font-size='5' font-style='normal' font-weight='normal' fill='#000000' font-family="'DroidSans'" id='schematicLabel' fill-opacity='1' stroke='none' ><text x='0' y='3.75'>10k&#x3a9;</text></g></g></g></svg>